<svg xmlns="http://www.w3.org/2000/svg" viewBox="0 0 56.7 56.7"><path d="M52.2 25.9h-7.5v-7.5c0-0.6-0.5-1-1-1H41.5c-0.6 0-1 0.5-1 1v7.5h-7.5c-0.6 0-1 0.5-1 1v2.1c0 0.6 0.5 1 1 1h7.5v7.5c0 0.6 0.5 1 1 1h2.1c0.6 0 1-0.5 1-1V30.1h7.5c0.6 0 1-0.5 1-1v-2.1C53.3 26.3 52.8 25.9 52.2 25.9z"/><path d="M27 32.4c-1.6-1.1-3-2.8-3-3.3 0-0.9 0.1-1.4 2.1-3 2.7-2.1 4.1-4.8 4.1-7.7 0-2.6-0.8-5-2.2-6.6h1.1c0.2 0 0.4-0.1 0.6-0.2l3-2.1c0.4-0.3 0.5-0.7 0.4-1.2 -0.1-0.4-0.5-0.7-1-0.7H18.8c-1.4 0-2.9 0.3-4.4 0.8 -4.8 1.7-8.2 5.8-8.2 10 0 6 4.6 10.5 10.8 10.6 -0.1 0.5-0.2 0.9-0.2 1.4 0 0.9 0.2 1.8 0.7 2.6 -0.1 0-0.1 0-0.2 0 -5.9 0-11.2 2.9-13.2 7.2 -0.5 1.1-0.8 2.3-0.8 3.4 0 1.1 0.3 2.1 0.8 3.1 1.3 2.3 4 4 7.7 5 1.9 0.5 3.9 0.7 6.1 0.7 1.9 0 3.7-0.2 5.4-0.7 5.2-1.5 8.6-5.4 8.6-9.8C32 37.6 30.7 35 27 32.4zM10.3 42.2c0-3.1 3.9-5.8 8.4-5.8h0.1c1 0 1.9 0.2 2.8 0.4 0.3 0.2 0.6 0.4 0.9 0.6 2.1 1.4 3.5 2.4 3.8 3.9 0.1 0.4 0.1 0.8 0.1 1.1 0 3.9-2.9 5.8-8.6 5.8C13.7 48.2 10.3 45.6 10.3 42.2zM14.4 12.9c0.7-0.8 1.6-1.2 2.7-1.2l0.1 0c2.9 0.1 5.7 3.3 6.2 7.3 0.3 2.2-0.2 4.3-1.3 5.5 -0.7 0.8-1.6 1.2-2.7 1.2 0 0 0 0 0 0h0c-2.9-0.1-5.7-3.5-6.2-7.4C12.8 16.1 13.3 14.1 14.4 12.9z"/></svg>