<?xml version="1.0" encoding="UTF-8" standalone="no"?>
<!-- Created with Inkscape (http://www.inkscape.org/) -->

<svg
   xmlns:dc="http://purl.org/dc/elements/1.1/"
   xmlns:cc="http://creativecommons.org/ns#"
   xmlns:rdf="http://www.w3.org/1999/02/22-rdf-syntax-ns#"
   xmlns:svg="http://www.w3.org/2000/svg"
   xmlns="http://www.w3.org/2000/svg"
   xmlns:sodipodi="http://sodipodi.sourceforge.net/DTD/sodipodi-0.dtd"
   xmlns:inkscape="http://www.inkscape.org/modules/inkscape"
   width="75.918396mm"
   height="29.250345mm"
   viewBox="0 0 269.00219 103.64296"
   id="svg2"
   version="1.1">
  <defs id="defs4">
     <style type="text/css">
        @font-face {
            font-family: Cotillion;
            src: url('cotillion-regular.svg#cotillion') format('svg'),
                 url('cotillion-regular.eot'),
                 url('cotillion-regular.eot?#iefix') format('embedded-opentype'),
                 url('cotillion-regular.woff') format('woff'),
                 url('cotillion-regular.woff2') format('woff2'), 
                 url('cotillion-regular.ttf') format('truetype');                 
            font-weight: normal;
            font-style: normal;
        }
    </style>
  </defs>
  <sodipodi:namedview
     id="base"
     pagecolor="#ffffff"
     bordercolor="#666666"
     borderopacity="1.0"
     inkscape:pageopacity="0.0"
     inkscape:pageshadow="2"
     inkscape:zoom="1.4"
     inkscape:cx="335.94362"
     inkscape:cy="-4.0391937"
     inkscape:document-units="px"
     inkscape:current-layer="layer1"
     showgrid="false"
     fit-margin-top="0"
     fit-margin-left="0"
     fit-margin-right="0"
     fit-margin-bottom="0"
     inkscape:window-width="1920"
     inkscape:window-height="1057"
     inkscape:window-x="-8"
     inkscape:window-y="-8"
     inkscape:window-maximized="1" />
  <metadata
     id="metadata7">
    <rdf:RDF>
      <cc:Work
         rdf:about="">
        <dc:format>image/svg+xml</dc:format>
        <dc:type
           rdf:resource="http://purl.org/dc/dcmitype/StillImage" />
        <dc:title></dc:title>
      </cc:Work>
    </rdf:RDF>
  </metadata>
  <g
     inkscape:label="Ebene 1"
     inkscape:groupmode="layer"
     id="layer1"
     transform="translate(0.929666,-1.25501)">
    <g
       id="g4345"
       transform="translate(-68.930966,-154.44499)">
      <g
         inkscape:export-ydpi="937.83521"
         inkscape:export-xdpi="937.83521"
         id="g5">
        <text
           id="text7"
           transform="translate(71.4813,226.1016)">
          <tspan
             id="tspan9"
             class="st0 st1 st2 st3"
             y="0"
             x="0"
             style="font-size:60px;font-family:Cotillion;letter-spacing:3;fill:#414042">Happy</tspan>
          <tspan
             id="tspan11"
             class="st0 st1 st2 st4"
             y="0"
             x="143.8"
             style="font-size:60px;font-family:Cotillion;letter-spacing:-15;fill:#414042" />
          <tspan
             id="tspan13"
             class="st0 st1 st2 st3"
             y="0"
             x="158.8"
             style="font-size:60px;font-family:Cotillion;letter-spacing:3;fill:#414042">Nails</tspan>
        </text>
      </g>
      <g
         inkscape:export-ydpi="937.83521"
         inkscape:export-xdpi="937.83521"
         id="g15">
        <text
           id="text17"
           class="st0 st1 st5"
           transform="translate(187.4989,179.23)"
           style="font-size:35px;font-family:Cotillion;fill:#414042">My</text>
      </g>
      <text
         inkscape:export-ydpi="937.83521"
         inkscape:export-xdpi="937.83521"
         style="font-size:13px;font-family:'Open Sans';letter-spacing:1;fill:#6d6e71"
         y="259.216"
         x="159.09895"
         id="text19"
         class="st6 st7 st8 st9">NAGELSTUDIO</text>
      <g
         inkscape:export-ydpi="937.83521"
         inkscape:export-xdpi="937.83521"
         id="g21">
        <g
           id="g23">
          <g
             id="g25">
            <path
               id="path27"
               d="m 261.6,180.6 c -2.7,-1.6 -4.7,-4.3 -4.6,-7.4 l 0,0 c 0,-0.8 0.2,-1.7 0.5,-2.6 l 0,0 c 0.5,-1.6 1.9,-2.9 3.2,-3.9 l 0,0 c 1.9,-1.5 5.7,-2 7.9,-1.9 l 0,0 c 0.2,0 0.4,0 0.6,0 l 0,0 c 2.4,-3.1 6.2,-4.5 10,-4.4 l 0,0 c 1.9,0.1 3.8,0.5 5.5,1.3 l 0,0 0,0 -0.2,0.3 c -1.6,-0.8 -3.5,-1.2 -5.3,-1.3 l 0,0 c -3.6,-0.1 -7.2,1.2 -9.5,4.1 l 0,0 c 0.3,0 0.6,0.1 1,0.1 l 0,0 c 2,0.4 4.6,1.6 5.8,3.4 l 0,0 c 0.5,0.7 0.7,1.6 0.7,2.4 l 0,0 c 0,1.3 -1.2,2.9 -2.7,3.3 l 0,0 c -0.4,0.1 -0.8,0.1 -1.2,0.1 l 0,0 c -3,-0.1 -5,-3.4 -4.9,-6.3 l 0,0 c 0,-0.8 0.3,-2 0.7,-2.7 l 0,0 c -0.1,0 -0.2,0 -0.3,0 l 0,0 c -2.2,-0.1 -4.4,0.5 -6.2,1.9 l 0,0 c -1.3,1 -2.6,2.2 -3,3.7 l 0,0 c -0.3,0.9 -0.4,1.7 -0.4,2.5 l 0,0 c -0.1,2.9 1.5,5.1 4.1,6.7 l 0,0 c 2.6,1.5 6.2,2.4 9.9,2.5 l 0,0 c 7.9,0.3 16.7,-2.6 19,-8.5 l 0,0 0.4,0.1 c -2.5,6.2 -11.8,9.4 -19.8,9.1 l 0,0 c -4.1,-0.1 -8.5,-0.9 -11.2,-2.5 l 0,0 z m 7,-13.1 c 0,1.4 0.5,2.9 1.4,4 l 0,0 c 0.9,1.1 2.2,1.9 3.5,2 l 0,0 c 0.4,0 0.7,0 1.1,-0.1 l 0,0 c 1.3,-0.3 1.9,-1.4 2,-2.6 l 0,0 c 0,-0.7 -0.2,-1.5 -0.6,-2.2 l 0,0 c -1.1,-1.7 -3.6,-2.8 -5.5,-3.2 l 0,0 c -0.4,-0.1 -0.8,-0.1 -1.2,-0.2 l 0,0 c -0.5,0.7 -0.7,1.5 -0.7,2.3 l 0,0 z"
               class="st10"
               inkscape:connector-curvature="0"
               style="fill:#9c27b0" />
            <path
               id="path29"
               d="m 271.9,179.5 c -1.5,0 -3.4,-0.4 -4.9,-1.1 -2.8,-1.1 -5.8,-3.4 -7.6,-4.5 -2.8,-1.9 -6.5,-3.6 -8.1,-4 -3.2,-0.9 -7.1,-0.4 -9.1,0.7 -2.3,1.3 -2.3,3.8 -1.6,4.9 0.7,1 2.2,1 2.2,1 -0.3,0 -0.9,-0.4 -1.4,-0.7 -1.1,-0.5 -0.8,-2.6 -0.7,-3 0.7,-1.7 3.2,-2.6 4.3,-2.8 4.5,-0.6 7,0.6 8.1,1 4.6,1.9 8.6,5 8.6,5 1.4,0.9 3.6,2.5 7.3,3.6 3.6,1.1 7.1,-0.1 7.7,-0.6 -1.1,0.3 -3.3,0.5 -4.8,0.5 z"
               class="st10"
               inkscape:connector-curvature="0"
               style="fill:#9c27b0" />
            <path
               id="path31"
               d="m 262.6,173.7 c 0,0 -0.2,0.5 -0.2,0.7 -1.8,-2.1 -4.6,-4.8 -8.2,-6.2 -3.6,-1.3 -5.6,-0.7 -6.8,-0.3 -1.2,0.4 -2.4,-0.2 -2.2,-1.1 0.1,-0.9 1.2,-1.5 5.2,-1 4.6,0.7 9.8,5 12.2,7.9 l 0,0 z"
               class="st11"
               inkscape:connector-curvature="0"
               style="clip-rule:evenodd;fill:#9c27b0;fill-rule:evenodd" />
            <path
               id="path33"
               d="m 284.2,162.4 c -0.4,1.1 -0.8,2 -0.9,3 -0.1,1.4 0.5,2.2 0.4,3.6 0.5,-0.6 1.2,-1.4 1.4,-2.3 0.2,-1.3 -0.8,-2.4 -0.9,-3.5 0,1.1 0.7,2.4 -0.2,3.6 -0.4,-1.2 -0.3,-2.7 0.2,-4.4 z"
               class="st11"
               inkscape:connector-curvature="0"
               style="clip-rule:evenodd;fill:#9c27b0;fill-rule:evenodd" />
            <path
               id="path35"
               d="m 283.9,163.7 c -0.8,0.3 -1.4,0.6 -2,1.1 -0.8,0.6 -0.9,1.4 -1.6,2 0.6,0 1.3,-0.1 1.9,-0.4 0.8,-0.5 0.8,-1.7 1.4,-2.2 -0.6,0.5 -0.9,1.6 -2,1.7 0.3,-0.9 1.2,-1.6 2.3,-2.2 z"
               class="st11"
               inkscape:connector-curvature="0"
               style="clip-rule:evenodd;fill:#9c27b0;fill-rule:evenodd" />
            <path
               id="path37"
               d="m 292.8,155.7 c 0,0 0.5,0.3 0.4,0.7 -0.1,0.5 -0.5,0.9 -0.8,1.1 -0.2,0.2 -0.3,0.3 -0.5,0.5 -0.3,0.2 -0.2,0.3 -0.5,0.4 -0.3,0.1 -0.4,0.2 -0.5,0.5 -0.1,0.4 -0.5,1 -0.8,1.2 -0.3,0.2 -0.6,0.2 -0.9,0.4 -0.4,0.3 -1,0.8 -1.5,0.7 -0.2,0 -0.3,-0.2 -0.5,-0.2 0.5,-0.6 1.6,-0.7 2.2,-1.2 0.5,-0.4 1.2,-1 1.5,-1.5 -0.7,0.9 -0.8,0.8 -1.2,1.2 -0.3,0.2 -0.7,0.5 -1.1,0.6 -0.4,0.1 -1.2,0.3 -1.7,0.7 0.2,-0.3 1.1,-0.8 1.2,-1.1 0.6,-0.8 3.2,-2 3.8,-2.6 -1.2,0.7 -4.5,2.6 -5.2,3.6 0.3,-0.5 0.2,-1.1 1.4,-2.6 -0.6,0.5 -1.3,1.7 -1.5,2.3 -0.2,0.5 -0.5,0.5 -0.9,0.6 0,0 0.2,-1.5 0.7,-1.9 0.5,-0.5 1.3,-1.2 2.2,-1.6 0.9,-0.3 2.2,-0.7 2.7,-0.9 0.4,-0.1 0.6,-0.3 1,-0.6 0.3,-0.2 0.5,-0.3 0.5,-0.3 z"
               class="st10"
               inkscape:connector-curvature="0"
               style="fill:#9c27b0" />
            <path
               id="path39"
               d="m 285.3,162 c 1.1,-0.6 3.4,-0.4 4.5,0 -1.1,-0.2 -3.2,-0.4 -4.4,0.2 0.5,0.4 2.2,0.5 2.8,0.6 0.8,0.2 2.7,0.5 3.5,0.7 0.7,0.2 0.3,0.1 0.9,0.2 -2.1,-0.5 -5.2,-0.7 -7.4,-1.1 1.1,0.2 2,1.1 3.1,1.4 1.1,0.4 2.5,0.7 4,1 -5,-0.8 -6.4,-1.6 -7.2,-2.2 0.9,1.1 1.4,1.5 2,2 0.6,0.5 1.6,1 2.8,1.6 -0.9,-0.4 -2.5,-1.2 -2.9,-1.5 -0.7,-0.5 -1.5,-1.1 -1.9,-1.5 0.7,1 2.6,2.5 3.9,3 0.8,0.3 1.5,0.6 1.9,0.2 0.4,-0.4 0.4,-0.6 0.7,-0.6 0.3,-0.1 0.4,-0.2 0.4,-0.3 0,-0.1 0,-0.2 0.2,-0.3 0.2,-0.1 0.4,-0.4 0.4,-0.6 0,-0.2 0,-0.2 0.1,-0.3 0.1,-0.1 0.2,-0.2 0.3,-0.5 0.1,-0.3 0,-0.4 0,-0.4 0,-0.1 0,-0.2 -0.1,-0.5 -0.1,-0.3 -0.5,-0.5 -0.8,-0.8 -0.4,-0.2 -1.5,-0.7 -2.5,-0.9 -1,-0.1 -1.9,-0.2 -2.3,-0.2 -0.7,0.1 -1.6,0.2 -2,0.8 z"
               class="st10"
               inkscape:connector-curvature="0"
               style="fill:#9c27b0" />
            <path
               id="path41"
               d="m 289.8,167.1 c 0,0 0.1,0.3 0,0.5 -0.1,0.2 -0.1,0.3 0,0.6 0,0.2 0.1,0.4 -0.1,0.4 -0.2,0.1 -0.4,0 -0.4,0.1 -0.1,0.1 -0.1,0.1 -0.3,-0.1 -0.2,-0.1 -0.8,-0.7 -1,-0.9 -0.2,-0.2 -0.8,-0.7 -1.1,-1.1 -0.3,-0.4 -0.4,-0.7 -0.5,-0.9 -0.2,-0.2 -0.2,-0.4 -0.4,-0.6 -0.2,-0.3 -0.3,-0.4 -0.3,-0.4 0,0 0.8,0.8 1.3,1.2 0.6,0.3 1.1,0.8 1.6,1 0.5,0.2 1,0.4 1,0.4 l 0.2,-0.2 z"
               class="st10"
               inkscape:connector-curvature="0"
               style="fill:#9c27b0" />
            <path
               id="path43"
               d="m 289.4,169.6 c 0,0 0.4,0.4 0.5,0.7 0.1,0.3 0.1,0.4 -0.1,0.5 -0.1,0.1 -0.3,0.2 -0.5,0.2 -0.2,-0.1 -0.2,-0.1 -0.2,-0.1 0,0 0.1,0 0.1,-0.1 -0.1,-0.1 -0.4,-0.3 -0.7,-0.5 -0.3,-0.2 -0.8,-0.6 -1.3,-1.1 -0.5,-0.6 -1.1,-1.5 -1.6,-2.5 -0.1,-0.3 -0.6,-1.3 -0.7,-2.1 0.1,0.2 0.5,1.1 0.7,1.4 0.2,0.3 0.4,0.8 0.6,1.2 0.4,0.8 0.8,1.6 1.8,2 -1.1,-0.4 -1.5,-1.6 -2,-2.7 -0.3,-0.8 -0.8,-1.4 -1.1,-2.2 0.3,0.4 0.5,1 0.8,1.5 0.4,0.7 0.6,1.3 1.7,2.3 1.2,0.9 2,1.5 2,1.5 z"
               class="st10"
               inkscape:connector-curvature="0"
               style="fill:#9c27b0" />
            <path
               id="path45"
               d="m 284.5,161.2 c 0.3,-0.8 0.6,-1.5 0.6,-2.2 0.1,-1 -0.4,-1.6 -0.4,-2.6 -0.4,0.5 -0.9,1 -1,1.7 -0.1,0.9 0.6,1.7 0.7,2.5 0,-0.8 -0.6,-1.7 0.1,-2.6 0.4,0.8 0.3,2 0,3.2 z"
               class="st11"
               inkscape:connector-curvature="0"
               style="clip-rule:evenodd;fill:#9c27b0;fill-rule:evenodd" />
            <path
               id="path47"
               d="m 273.4,179.6 c 2.1,-0.6 4,-0.9 5.7,-1.9 2.3,-1.3 2.9,-3.2 5.1,-4.6 -1.6,-0.1 -3.5,-0.4 -5,0.4 -2.2,1.1 -2.9,3.9 -4.6,5.2 1.7,-1.1 2.9,-3.8 5.8,-3.6 -1.4,1.9 -3.9,3.5 -7,4.5 z"
               class="st11"
               inkscape:connector-curvature="0"
               style="clip-rule:evenodd;fill:#9c27b0;fill-rule:evenodd" />
            <path
               id="path49"
               d="m 270.2,166.9 c 16,-1.6 27.2,14.7 43.7,10 2.7,-0.8 5.3,-2.2 7.4,-4.1 1.4,-1.3 3.7,-3.9 5,-6.1 l -0.2,0.5 c -1.3,2.2 -3.5,4.8 -4.9,6.1 -2.1,1.9 -4.7,3.3 -7.4,4.1 -16.5,4.7 -28,-11.9 -44,-10.3 l 0.4,-0.2 z"
               class="st10"
               inkscape:connector-curvature="0"
               style="fill:#9c27b0" />
            <path
               id="path51"
               d="m 315.2,167.1 c -0.5,5.7 -5.7,11.3 -11.6,11.9 -5.2,0.5 -8.7,-0.7 -12.3,-3.2 -4.8,-3.4 -8.4,-5.8 -13.9,-7.8 -4.1,-1.5 -12.8,-2.8 -16.9,3.4 l -0.1,0.4 c 4.1,-6.2 12.8,-4.9 16.9,-3.4 5.5,2 9.2,4.4 13.9,7.8 3.6,2.6 7.1,3.7 12.3,3.2 5.9,-0.6 11.2,-5.9 11.8,-11.6 l -0.1,-0.7 z"
               class="st10"
               inkscape:connector-curvature="0"
               style="fill:#9c27b0" />
            <path
               id="path53"
               d="m 314.8,169.5 c 0.6,-1.4 0.7,-3.2 -0.8,-4.4 -1,-0.8 -2.9,-0.5 -3,1 -0.1,0.6 0.4,1.1 0.9,1.2 -0.3,-1.4 0.8,-2.3 1.9,-1.8 2.1,1 1.2,3.5 0.6,4.9 l 0.4,-0.9 z"
               class="st10"
               inkscape:connector-curvature="0"
               style="fill:#9c27b0" />
            <path
               id="path55"
               d="m 324.7,168.6 c 1.1,-1.2 2.1,-2.1 2.8,-3.4 0.9,-1.7 0.5,-3 1.3,-4.8 -1,0.5 -2.3,1.1 -2.9,2.2 -0.9,1.5 -0.2,3.5 -0.8,5 0.6,-1.3 0.3,-3.4 2.1,-4.5 -0.1,1.8 -1,3.7 -2.5,5.5 z"
               class="st11"
               inkscape:connector-curvature="0"
               style="clip-rule:evenodd;fill:#9c27b0;fill-rule:evenodd" />
            <path
               id="path57"
               d="m 310.2,179.3 c 0,0 -0.2,-0.4 -0.4,-0.5 2.4,0.1 5.7,-0.1 8.7,-1.6 3,-1.5 3.7,-3.2 4.2,-4.2 0.4,-1 1.5,-1.4 2,-0.8 0.5,0.6 0.3,1.6 -2.4,3.9 -3.1,2.6 -8.8,3.4 -12.1,3.2 l 0,0 z"
               class="st11"
               inkscape:connector-curvature="0"
               style="clip-rule:evenodd;fill:#9c27b0;fill-rule:evenodd" />
            <path
               id="path59"
               d="m 241.4,175.4 c -0.7,0.6 -1.3,1 -1.7,1.6 -0.6,0.8 -0.5,1.6 -1,2.5 0.6,-0.2 1.3,-0.4 1.7,-1 0.6,-0.8 0.3,-1.9 0.7,-2.6 -0.4,0.7 -0.4,1.8 -1.4,2.3 0.2,-1 0.8,-1.9 1.7,-2.8 z"
               class="st11"
               inkscape:connector-curvature="0"
               style="clip-rule:evenodd;fill:#9c27b0;fill-rule:evenodd" />
            <path
               id="path61"
               d="m 240.8,176.1 c -0.6,-0.1 -1.2,-0.1 -1.7,-0.1 -0.7,0.1 -1.1,0.6 -1.8,0.7 0.4,0.2 0.9,0.4 1.4,0.4 0.7,-0.1 1.2,-0.8 1.7,-0.9 -0.6,0.1 -1.2,0.7 -1.9,0.4 0.5,-0.4 1.3,-0.5 2.3,-0.5 z"
               class="st11"
               inkscape:connector-curvature="0"
               style="clip-rule:evenodd;fill:#9c27b0;fill-rule:evenodd" />
            <path
               id="path63"
               d="m 249.5,174.1 c 0,0 0.3,0.4 0,0.6 -0.3,0.3 -0.7,0.4 -0.9,0.4 -0.2,0 -0.3,0.1 -0.5,0.2 -0.3,0.1 -0.3,0.1 -0.5,0.1 -0.2,0 -0.3,0 -0.5,0.2 -0.2,0.2 -0.7,0.5 -1,0.5 -0.3,0 -0.5,-0.1 -0.8,-0.1 -0.4,0 -0.9,0.1 -1.2,-0.1 -0.1,-0.1 -0.1,-0.2 -0.2,-0.3 0.6,-0.2 1.3,0.2 1.9,0.1 0.5,-0.1 1.1,-0.2 1.5,-0.4 -0.8,0.3 -0.8,0.3 -1.2,0.3 -0.3,0.1 -0.7,0.1 -0.9,0 -0.3,0 -0.9,-0.2 -1.4,-0.1 0.2,-0.1 1,-0.2 1.2,-0.3 0.7,-0.3 2.8,-0.1 3.5,-0.3 -1,0 -3.9,0 -4.7,0.4 0.4,-0.2 0.5,-0.6 1.9,-1.2 -0.5,0.1 -1.5,0.6 -1.8,0.9 -0.3,0.3 -0.5,0.1 -0.8,0.1 0,0 0.7,-0.9 1.2,-1 0.5,-0.1 1.3,-0.3 2,-0.2 0.7,0.1 1.7,0.3 2.1,0.4 0.3,0.1 0.5,0 0.9,0 0.1,-0.2 0.2,-0.2 0.2,-0.2 z"
               class="st10"
               inkscape:connector-curvature="0"
               style="fill:#9c27b0" />
            <path
               id="path65"
               d="m 242.3,175.5 c 1,0 2.4,1 2.9,1.7 -0.7,-0.6 -1.9,-1.4 -3,-1.5 0.2,0.4 1.2,1.1 1.6,1.4 0.5,0.4 1.6,1.3 2,1.7 0.4,0.3 0.2,0.2 0.5,0.4 -1.2,-1.1 -3.1,-2.4 -4.4,-3.4 0.6,0.5 0.9,1.5 1.5,2.1 0.6,0.6 1.4,1.4 2.2,2.1 -3,-2.4 -3.6,-3.4 -3.9,-4.1 0.2,1 0.4,1.5 0.6,2 0.2,0.5 0.6,1.2 1.2,2.1 -0.5,-0.6 -1.2,-1.7 -1.4,-2.1 -0.3,-0.6 -0.6,-1.3 -0.7,-1.7 0.1,0.9 0.8,2.6 1.4,3.4 0.4,0.5 0.8,1 1.2,0.8 0.4,-0.1 0.5,-0.2 0.7,-0.2 0.2,0.1 0.3,0 0.4,0 0,-0.1 0.1,-0.1 0.2,-0.1 0.2,0 0.4,-0.1 0.5,-0.3 0.1,-0.1 0.1,-0.2 0.2,-0.2 0.1,0 0.2,-0.1 0.4,-0.2 0.2,-0.2 0.1,-0.2 0.1,-0.3 0,0 0.1,-0.2 0.1,-0.4 0,-0.2 -0.1,-0.5 -0.3,-0.8 -0.1,-0.3 -0.7,-1 -1.3,-1.5 -0.6,-0.5 -1.1,-0.8 -1.5,-1 -0.1,0.1 -0.7,-0.1 -1.2,0.1 z"
               class="st10"
               inkscape:connector-curvature="0"
               style="fill:#9c27b0" />
            <path
               id="path67"
               d="m 243.4,180.5 c 0,0 0,0.2 -0.2,0.3 -0.1,0.1 -0.2,0.2 -0.2,0.3 -0.1,0.2 -0.1,0.3 -0.2,0.3 -0.1,0 -0.2,-0.1 -0.3,-0.1 -0.1,0 -0.1,0 -0.2,-0.2 -0.1,-0.1 -0.2,-0.8 -0.3,-1 -0.1,-0.2 -0.3,-0.8 -0.3,-1.1 0,-0.4 0,-0.6 0,-0.8 0,-0.2 0,-0.3 0,-0.6 0,-0.3 0,-0.4 0,-0.4 0,0 0.2,0.8 0.4,1.2 0.2,0.4 0.5,0.9 0.7,1.3 0.2,0.3 0.5,0.6 0.5,0.6 l 0.1,0.2 z"
               class="st10"
               inkscape:connector-curvature="0"
               style="fill:#9c27b0" />
            <path
               id="path69"
               d="m 242.2,182 c 0,0 0.1,0.4 0.1,0.6 0,0.2 -0.1,0.3 -0.3,0.3 -0.1,0 -0.3,0 -0.4,-0.1 -0.1,-0.1 -0.1,-0.1 -0.1,-0.1 0,0 0.1,0 0.1,-0.1 0,-0.1 -0.2,-0.3 -0.3,-0.6 -0.1,-0.2 -0.3,-0.6 -0.4,-1.2 -0.1,-0.6 -0.2,-1.4 -0.1,-2.2 0,-0.3 0.1,-1 0.3,-1.7 0,0.2 -0.1,0.9 -0.1,1.2 0,0.3 0,0.7 -0.1,1 0,0.7 -0.1,1.4 0.4,1.9 -0.6,-0.7 -0.4,-1.6 -0.3,-2.5 0.1,-0.6 0,-1.2 0.1,-1.8 0.1,0.4 0,0.9 0,1.3 0,0.6 -0.1,1.1 0.3,2.1 0.5,1.2 0.8,1.9 0.8,1.9 z"
               class="st10"
               inkscape:connector-curvature="0"
               style="fill:#9c27b0" />
            <path
               id="path71"
               d="m 242.1,174.6 c 0.5,-0.4 0.9,-0.7 1.2,-1.2 0.4,-0.6 0.3,-1.2 0.7,-1.8 -0.4,0.2 -0.9,0.3 -1.2,0.7 -0.4,0.6 -0.2,1.4 -0.5,1.9 0.3,-0.5 0.3,-1.3 1,-1.7 -0.1,0.8 -0.5,1.5 -1.2,2.1 z"
               class="st11"
               inkscape:connector-curvature="0"
               style="clip-rule:evenodd;fill:#9c27b0;fill-rule:evenodd" />
            <path
               id="path73"
               d="m 275.7,182.7 0,-0.4 c 0.4,0 0.8,0 1.2,0 l 0,0 c 4.8,-0.3 9.4,-4.7 13.1,-7.3 l 0,0 c 2.9,-2.1 6.3,-3.1 9.7,-3.3 l 0,0 c 4,-0.3 8.2,0.5 12.1,1.8 l 0,0 c 4.1,1.4 9.3,3.7 13.7,3.4 l 0,0 c 2.6,-0.2 4.9,-1.2 6.7,-3.8 l 0,0 0.3,0.2 c -1.9,2.7 -4.4,3.8 -7,4 l 0,0 c -4.6,0.3 -9.8,-2 -13.9,-3.4 l 0,0 c -3.9,-1.3 -8,-2.1 -11.9,-1.8 l 0,0 c -3.4,0.2 -6.6,1.2 -9.5,3.2 l 0,0 c -3.6,2.6 -8.3,7 -13.3,7.3 l 0,0 c -0.3,0.1 -0.7,0.1 -1.2,0.1 l 0,0 z"
               class="st10"
               inkscape:connector-curvature="0"
               style="fill:#9c27b0" />
            <path
               id="path75"
               d="m 323.5,171 c 1.3,-0.3 2.4,-0.5 3.4,-1.1 1.4,-0.8 1.7,-1.9 3,-2.7 -1,-0.1 -2.1,-0.2 -3,0.2 -1.3,0.6 -1.7,2.3 -2.7,3.1 1,-0.7 1.7,-2.2 3.4,-2.1 -0.7,1.1 -2.2,2 -4.1,2.6 z"
               class="st11"
               inkscape:connector-curvature="0"
               style="clip-rule:evenodd;fill:#9c27b0;fill-rule:evenodd" />
            <path
               id="path77"
               d="m 294.4,173.4 c 1.4,0.7 2.6,1.5 4,1.8 1.9,0.4 3.1,-0.3 5,0 -0.8,-0.9 -1.7,-1.9 -2.9,-2.3 -1.7,-0.5 -3.5,0.7 -5,0.5 1.5,0.2 3.4,-0.6 4.9,0.9 -1.7,0.5 -3.9,0.1 -6,-0.9 z"
               class="st11"
               inkscape:connector-curvature="0"
               style="clip-rule:evenodd;fill:#9c27b0;fill-rule:evenodd" />
          </g>
        </g>
        <g
           id="g79">
          <g
             id="g81">
            <path
               id="path83"
               d="m 153.1,180.6 c -2.7,1.6 -7,2.5 -10.9,2.6 l 0,0 c -8,0.3 -17.3,-3 -19.8,-9.1 l 0.4,-0.1 0,0 c 2.3,5.9 11.1,8.8 19,8.5 l 0,0 c 3.8,-0.1 7.3,-1 9.9,-2.5 l 0,0 c 2.6,-1.5 4.2,-3.8 4.1,-6.7 l 0,0 c 0,-0.8 -0.2,-1.6 -0.4,-2.5 l 0,0 c -0.5,-1.5 -1.8,-2.7 -3,-3.7 l 0,0 c -1.8,-1.4 -4,-2 -6.2,-1.9 l 0,0 c -0.1,0 -0.2,0 -0.3,0 l 0,0 c 0.4,0.7 0.7,1.9 0.7,2.7 l 0,0 c 0.1,3 -1.9,6.2 -4.9,6.3 l 0,0 c -0.4,0 -0.8,0 -1.2,-0.1 l 0,0 c -1.5,-0.4 -2.6,-2 -2.7,-3.3 l 0,0 c 0,-0.8 0.2,-1.7 0.7,-2.4 l 0,0 c 1.2,-1.8 3.7,-3 5.8,-3.4 l 0,0 c 0.3,-0.1 0.6,-0.1 1,-0.1 l 0,0 c -2.3,-2.9 -6,-4.2 -9.5,-4.1 l 0,0 c -1.8,0.1 -3.7,0.5 -5.3,1.3 l -0.2,-0.3 0,0 0,0 c 1.7,-0.8 3.6,-1.3 5.5,-1.3 l 0,0 c 3.8,-0.1 7.6,1.3 10,4.4 l 0,0 c 0.2,0 0.4,0 0.6,0 l 0,0 c 2.3,-0.1 6,0.4 7.9,1.9 l 0,0 c 1.3,1 2.7,2.3 3.2,3.9 l 0,0 c 0.3,0.9 0.4,1.8 0.5,2.6 l 0,0 c -0.1,2.9 -2.2,5.7 -4.9,7.3 l 0,0 z m -6.9,-13.1 c 0,-0.8 -0.3,-1.6 -0.7,-2.3 l 0,0 c -0.4,0 -0.8,0.1 -1.2,0.2 l 0,0 c -1.9,0.4 -4.4,1.5 -5.5,3.2 l 0,0 c -0.4,0.6 -0.6,1.4 -0.6,2.2 l 0,0 c 0,1.2 0.7,2.2 2,2.6 l 0,0 c 0.4,0.1 0.8,0.1 1.1,0.1 l 0,0 c 1.4,0 2.6,-0.8 3.5,-2 l 0,0 c 0.9,-1.2 1.4,-2.6 1.4,-4 l 0,0 z"
               class="st10"
               inkscape:connector-curvature="0"
               style="fill:#9c27b0" />
            <path
               id="path85"
               d="m 142.9,179.5 c 1.5,0 3.4,-0.4 4.9,-1.1 2.8,-1.1 5.8,-3.4 7.6,-4.5 2.8,-1.9 6.5,-3.6 8.1,-4 3.2,-0.9 7.1,-0.4 9.1,0.7 2.3,1.3 2.3,3.8 1.6,4.9 -0.7,1 -2.2,1 -2.2,1 0.3,0 0.9,-0.4 1.4,-0.7 1.1,-0.5 0.8,-2.6 0.7,-3 -0.7,-1.7 -3.2,-2.6 -4.3,-2.8 -4.5,-0.6 -7,0.6 -8.1,1 -4.6,1.9 -8.6,5 -8.6,5 -1.4,0.9 -3.6,2.5 -7.3,3.6 -3.6,1.1 -7.1,-0.1 -7.7,-0.6 1,0.3 3.3,0.5 4.8,0.5 z"
               class="st10"
               inkscape:connector-curvature="0"
               style="fill:#9c27b0" />
            <path
               id="path87"
               d="m 152.1,173.7 c 0,0 0.2,0.5 0.2,0.7 1.8,-2.1 4.6,-4.8 8.2,-6.2 3.6,-1.3 5.6,-0.7 6.8,-0.3 1.2,0.4 2.4,-0.2 2.2,-1.1 -0.1,-0.9 -1.2,-1.5 -5.2,-1 -4.6,0.7 -9.7,5 -12.2,7.9 l 0,0 z"
               class="st11"
               inkscape:connector-curvature="0"
               style="clip-rule:evenodd;fill:#9c27b0;fill-rule:evenodd" />
            <path
               id="path89"
               d="m 130.6,162.4 c 0.4,1.1 0.8,2 0.9,3 0.1,1.4 -0.5,2.2 -0.4,3.6 -0.5,-0.6 -1.2,-1.4 -1.4,-2.3 -0.2,-1.3 0.8,-2.4 0.9,-3.5 0,1.1 -0.7,2.4 0.2,3.6 0.4,-1.2 0.2,-2.7 -0.2,-4.4 z"
               class="st11"
               inkscape:connector-curvature="0"
               style="clip-rule:evenodd;fill:#9c27b0;fill-rule:evenodd" />
            <path
               id="path91"
               d="m 130.9,163.7 c 0.8,0.3 1.4,0.6 2,1.1 0.8,0.6 0.9,1.4 1.6,2 -0.6,0 -1.3,-0.1 -1.9,-0.4 -0.8,-0.5 -0.8,-1.7 -1.4,-2.2 0.6,0.5 0.9,1.6 2,1.7 -0.4,-0.9 -1.2,-1.6 -2.3,-2.2 z"
               class="st11"
               inkscape:connector-curvature="0"
               style="clip-rule:evenodd;fill:#9c27b0;fill-rule:evenodd" />
            <path
               id="path93"
               d="m 122,155.7 c 0,0 -0.5,0.3 -0.4,0.7 0.1,0.5 0.5,0.9 0.8,1.1 0.2,0.2 0.3,0.3 0.5,0.5 0.3,0.2 0.2,0.3 0.5,0.4 0.3,0.1 0.4,0.2 0.5,0.5 0.1,0.4 0.5,1 0.8,1.2 0.3,0.2 0.6,0.2 0.9,0.4 0.4,0.3 1,0.8 1.5,0.7 0.2,0 0.3,-0.2 0.5,-0.2 -0.5,-0.6 -1.6,-0.7 -2.2,-1.2 -0.5,-0.4 -1.2,-1 -1.5,-1.5 0.7,0.9 0.8,0.8 1.2,1.2 0.3,0.2 0.7,0.5 1.1,0.6 0.4,0.1 1.2,0.3 1.7,0.7 -0.2,-0.3 -1.1,-0.8 -1.2,-1.1 -0.6,-0.8 -3.2,-2 -3.8,-2.6 1.2,0.7 4.5,2.6 5.2,3.6 -0.3,-0.5 -0.2,-1.1 -1.4,-2.6 0.6,0.5 1.3,1.7 1.5,2.3 0.2,0.5 0.5,0.5 0.9,0.6 0,0 -0.2,-1.5 -0.7,-1.9 -0.5,-0.5 -1.3,-1.2 -2.2,-1.6 -0.9,-0.3 -2.2,-0.7 -2.7,-0.9 -0.4,-0.1 -0.6,-0.3 -1,-0.6 -0.3,-0.2 -0.5,-0.3 -0.5,-0.3 z"
               class="st10"
               inkscape:connector-curvature="0"
               style="fill:#9c27b0" />
            <path
               id="path95"
               d="m 129.5,162 c -1.1,-0.6 -3.4,-0.4 -4.5,0 1.1,-0.2 3.2,-0.4 4.4,0.2 -0.5,0.4 -2.2,0.5 -2.8,0.6 -0.8,0.2 -2.7,0.5 -3.5,0.7 -0.7,0.2 -0.3,0.1 -0.9,0.2 2.1,-0.5 5.2,-0.7 7.4,-1.1 -1.1,0.2 -2,1.1 -3.1,1.4 -1.1,0.4 -2.5,0.7 -4,1 5,-0.8 6.4,-1.6 7.2,-2.2 -0.9,1.1 -1.4,1.5 -2,2 -0.6,0.5 -1.6,1 -2.8,1.6 0.9,-0.4 2.5,-1.2 2.9,-1.5 0.7,-0.5 1.5,-1.1 1.9,-1.5 -0.7,1 -2.6,2.5 -3.9,3 -0.8,0.3 -1.5,0.6 -1.9,0.2 -0.4,-0.4 -0.4,-0.6 -0.7,-0.6 -0.3,-0.1 -0.4,-0.2 -0.4,-0.3 0,-0.1 0,-0.2 -0.2,-0.3 -0.2,-0.1 -0.4,-0.4 -0.4,-0.6 0,-0.2 0,-0.2 -0.1,-0.3 -0.1,-0.1 -0.2,-0.2 -0.3,-0.5 -0.1,-0.3 0,-0.4 0,-0.4 0,-0.1 0,-0.2 0.1,-0.5 0.1,-0.3 0.5,-0.5 0.8,-0.8 0.4,-0.2 1.5,-0.7 2.5,-0.9 1,-0.1 1.9,-0.2 2.3,-0.2 0.7,0.1 1.6,0.2 2,0.8 z"
               class="st10"
               inkscape:connector-curvature="0"
               style="fill:#9c27b0" />
            <path
               id="path97"
               d="m 125,167.1 c 0,0 -0.1,0.3 0,0.5 0.1,0.2 0.1,0.3 0,0.6 0,0.2 -0.1,0.4 0.1,0.4 0.2,0.1 0.4,0 0.4,0.1 0.1,0.1 0.1,0.1 0.3,-0.1 0.2,-0.1 0.8,-0.7 1,-0.9 0.2,-0.2 0.8,-0.7 1.1,-1.1 0.3,-0.4 0.4,-0.7 0.5,-0.9 0.2,-0.2 0.2,-0.4 0.4,-0.6 0.2,-0.3 0.3,-0.4 0.3,-0.4 0,0 -0.8,0.8 -1.3,1.2 -0.6,0.3 -1.1,0.8 -1.6,1 -0.5,0.2 -1,0.4 -1,0.4 l -0.2,-0.2 z"
               class="st10"
               inkscape:connector-curvature="0"
               style="fill:#9c27b0" />
            <path
               id="path99"
               d="m 125.4,169.6 c 0,0 -0.4,0.4 -0.5,0.7 -0.1,0.3 -0.1,0.4 0.1,0.5 0.1,0.1 0.3,0.2 0.5,0.2 0.2,-0.1 0.2,-0.1 0.2,-0.1 0,0 -0.1,0 -0.1,-0.1 0.1,-0.1 0.4,-0.3 0.7,-0.5 0.3,-0.2 0.8,-0.6 1.3,-1.1 0.5,-0.6 1.1,-1.5 1.6,-2.5 0.1,-0.3 0.6,-1.3 0.7,-2.1 -0.1,0.2 -0.5,1.1 -0.7,1.4 -0.2,0.3 -0.4,0.8 -0.6,1.2 -0.4,0.8 -0.8,1.6 -1.8,2 1.1,-0.4 1.5,-1.6 2,-2.7 0.3,-0.8 0.8,-1.4 1.1,-2.2 -0.3,0.4 -0.5,1 -0.8,1.5 -0.4,0.7 -0.6,1.3 -1.7,2.3 -1.2,0.9 -2,1.5 -2,1.5 z"
               class="st10"
               inkscape:connector-curvature="0"
               style="fill:#9c27b0" />
            <path
               id="path101"
               d="m 130.3,161.2 c -0.3,-0.8 -0.6,-1.5 -0.6,-2.2 -0.1,-1 0.4,-1.6 0.4,-2.6 0.4,0.5 0.9,1 1,1.7 0.1,0.9 -0.6,1.7 -0.7,2.5 0,-0.8 0.6,-1.7 -0.1,-2.6 -0.4,0.8 -0.4,2 0,3.2 z"
               class="st11"
               inkscape:connector-curvature="0"
               style="clip-rule:evenodd;fill:#9c27b0;fill-rule:evenodd" />
            <path
               id="path103"
               d="m 141.4,179.6 c -2.1,-0.6 -4,-0.9 -5.7,-1.9 -2.3,-1.3 -2.9,-3.2 -5.1,-4.6 1.6,-0.1 3.5,-0.4 5,0.4 2.2,1.1 2.9,3.9 4.6,5.2 -1.7,-1.1 -2.9,-3.8 -5.8,-3.6 1.3,1.9 3.9,3.5 7,4.5 z"
               class="st11"
               inkscape:connector-curvature="0"
               style="clip-rule:evenodd;fill:#9c27b0;fill-rule:evenodd" />
            <path
               id="path105"
               d="m 144.5,166.9 c -16,-1.6 -27.2,14.7 -43.7,10 -2.7,-0.8 -5.3,-2.2 -7.4,-4.1 -1.4,-1.3 -3.7,-3.9 -5,-6.1 l 0.2,0.5 c 1.3,2.2 3.5,4.8 4.9,6.1 2.1,1.9 4.7,3.3 7.4,4.1 16.5,4.7 28,-11.9 44,-10.3 l -0.4,-0.2 z"
               class="st10"
               inkscape:connector-curvature="0"
               style="fill:#9c27b0" />
            <path
               id="path107"
               d="m 99.6,167.1 c 0.5,5.7 5.7,11.3 11.6,11.9 5.2,0.5 8.7,-0.7 12.3,-3.2 4.8,-3.4 8.4,-5.8 13.9,-7.8 4.1,-1.5 12.8,-2.8 16.9,3.4 l 0.1,0.4 c -4.1,-6.2 -12.8,-4.9 -16.9,-3.4 -5.5,2 -9.2,4.4 -13.9,7.8 -3.6,2.6 -7.1,3.7 -12.3,3.2 -5.9,-0.6 -11.2,-5.9 -11.8,-11.6 l 0.1,-0.7 z"
               class="st10"
               inkscape:connector-curvature="0"
               style="fill:#9c27b0" />
            <path
               id="path109"
               d="m 100,169.5 c -0.6,-1.4 -0.7,-3.2 0.8,-4.4 1,-0.8 2.9,-0.5 3,1 0.1,0.6 -0.4,1.1 -0.9,1.2 0.3,-1.4 -0.8,-2.3 -1.9,-1.8 -2.1,1 -1.2,3.5 -0.6,4.9 l -0.4,-0.9 z"
               class="st10"
               inkscape:connector-curvature="0"
               style="fill:#9c27b0" />
            <path
               id="path111"
               d="m 90.1,168.6 c -1.1,-1.2 -2.1,-2.1 -2.8,-3.4 -0.9,-1.7 -0.5,-3 -1.3,-4.8 1,0.5 2.3,1.1 2.9,2.2 0.9,1.5 0.2,3.5 0.8,5 -0.6,-1.3 -0.3,-3.4 -2.1,-4.5 0,1.8 1,3.7 2.5,5.5 z"
               class="st11"
               inkscape:connector-curvature="0"
               style="clip-rule:evenodd;fill:#9c27b0;fill-rule:evenodd" />
            <path
               id="path113"
               d="m 104.6,179.3 c 0,0 0.2,-0.4 0.4,-0.5 -2.4,0.1 -5.7,-0.1 -8.7,-1.6 -3,-1.5 -3.7,-3.2 -4.2,-4.2 -0.4,-1 -1.5,-1.4 -2,-0.8 -0.5,0.6 -0.3,1.6 2.4,3.9 3,2.6 8.7,3.4 12.1,3.2 l 0,0 z"
               class="st11"
               inkscape:connector-curvature="0"
               style="clip-rule:evenodd;fill:#9c27b0;fill-rule:evenodd" />
            <path
               id="path115"
               d="m 173.3,175.4 c 0.7,0.6 1.3,1 1.7,1.6 0.6,0.8 0.5,1.6 1,2.5 -0.6,-0.2 -1.3,-0.4 -1.7,-1 -0.6,-0.8 -0.3,-1.9 -0.7,-2.6 0.4,0.7 0.4,1.8 1.4,2.3 -0.1,-1 -0.8,-1.9 -1.7,-2.8 z"
               class="st11"
               inkscape:connector-curvature="0"
               style="clip-rule:evenodd;fill:#9c27b0;fill-rule:evenodd" />
            <path
               id="path117"
               d="m 174,176.1 c 0.6,-0.1 1.2,-0.1 1.7,-0.1 0.7,0.1 1.1,0.6 1.8,0.7 -0.4,0.2 -0.9,0.4 -1.4,0.4 -0.7,-0.1 -1.2,-0.8 -1.7,-0.9 0.6,0.1 1.2,0.7 1.9,0.4 -0.5,-0.4 -1.4,-0.5 -2.3,-0.5 z"
               class="st11"
               inkscape:connector-curvature="0"
               style="clip-rule:evenodd;fill:#9c27b0;fill-rule:evenodd" />
            <path
               id="path119"
               d="m 165.2,174.1 c 0,0 -0.3,0.4 0,0.6 0.3,0.3 0.7,0.4 0.9,0.4 0.2,0 0.3,0.1 0.5,0.2 0.3,0.1 0.3,0.1 0.5,0.1 0.2,0 0.3,0 0.5,0.2 0.2,0.2 0.7,0.5 1,0.5 0.3,0 0.5,-0.1 0.8,-0.1 0.4,0 0.9,0.1 1.2,-0.1 0.1,-0.1 0.1,-0.2 0.2,-0.3 -0.6,-0.2 -1.3,0.2 -1.9,0.1 -0.5,-0.1 -1.1,-0.2 -1.5,-0.4 0.8,0.3 0.8,0.3 1.2,0.3 0.3,0.1 0.7,0.1 0.9,0 0.3,0 0.9,-0.2 1.4,-0.1 -0.2,-0.1 -1,-0.2 -1.2,-0.3 -0.7,-0.3 -2.8,-0.1 -3.5,-0.3 1,0 3.9,0 4.7,0.4 -0.4,-0.2 -0.5,-0.6 -1.9,-1.2 0.5,0.1 1.5,0.6 1.8,0.9 0.3,0.3 0.5,0.1 0.8,0.1 0,0 -0.7,-0.9 -1.2,-1 -0.5,-0.1 -1.3,-0.3 -2,-0.2 -0.7,0.1 -1.7,0.3 -2.1,0.4 -0.3,0.1 -0.5,0 -0.9,0 0,-0.2 -0.2,-0.2 -0.2,-0.2 z"
               class="st10"
               inkscape:connector-curvature="0"
               style="fill:#9c27b0" />
            <path
               id="path121"
               d="m 172.4,175.5 c -1,0 -2.4,1 -2.9,1.7 0.7,-0.6 1.9,-1.4 3,-1.5 -0.2,0.4 -1.2,1.1 -1.6,1.4 -0.5,0.4 -1.6,1.3 -2,1.7 -0.4,0.3 -0.2,0.2 -0.5,0.4 1.2,-1.1 3.1,-2.4 4.4,-3.4 -0.6,0.5 -0.9,1.5 -1.5,2.1 -0.6,0.6 -1.4,1.4 -2.2,2.1 3,-2.4 3.6,-3.4 3.9,-4.1 -0.2,1 -0.4,1.5 -0.6,2 -0.2,0.5 -0.6,1.2 -1.2,2.1 0.5,-0.6 1.2,-1.7 1.4,-2.1 0.3,-0.6 0.6,-1.3 0.7,-1.7 -0.1,0.9 -0.8,2.6 -1.4,3.4 -0.4,0.5 -0.8,1 -1.2,0.8 -0.4,-0.1 -0.5,-0.2 -0.7,-0.2 -0.2,0.1 -0.3,0 -0.4,0 0,-0.1 -0.1,-0.1 -0.2,-0.1 -0.2,0 -0.4,-0.1 -0.5,-0.3 -0.1,-0.1 -0.1,-0.2 -0.2,-0.2 -0.1,0 -0.2,-0.1 -0.4,-0.2 -0.2,-0.2 -0.1,-0.2 -0.1,-0.3 0,0 -0.1,-0.2 -0.1,-0.4 0,-0.2 0.1,-0.5 0.3,-0.8 0.1,-0.3 0.7,-1 1.3,-1.5 0.6,-0.5 1.1,-0.8 1.5,-1 0.1,0.1 0.8,-0.1 1.2,0.1 z"
               class="st10"
               inkscape:connector-curvature="0"
               style="fill:#9c27b0" />
            <path
               id="path123"
               d="m 171.4,180.5 c 0,0 0,0.2 0.2,0.3 0.1,0.1 0.2,0.2 0.2,0.3 0.1,0.2 0.1,0.3 0.2,0.3 0.1,0 0.2,-0.1 0.3,-0.1 0.1,0 0.1,0 0.2,-0.2 0.1,-0.1 0.2,-0.8 0.3,-1 0.1,-0.2 0.3,-0.8 0.3,-1.1 0,-0.4 0,-0.6 0,-0.8 0,-0.2 0,-0.3 0,-0.6 0,-0.3 0,-0.4 0,-0.4 0,0 -0.2,0.8 -0.4,1.2 -0.2,0.4 -0.5,0.9 -0.7,1.3 -0.2,0.3 -0.5,0.6 -0.5,0.6 l -0.1,0.2 z"
               class="st10"
               inkscape:connector-curvature="0"
               style="fill:#9c27b0" />
            <path
               id="path125"
               d="m 172.5,182 c 0,0 -0.1,0.4 -0.1,0.6 0,0.2 0.1,0.3 0.3,0.3 0.1,0 0.3,0 0.4,-0.1 0.1,-0.1 0.1,-0.1 0.1,-0.1 0,0 -0.1,0 -0.1,-0.1 0,-0.1 0.2,-0.3 0.3,-0.6 0.1,-0.2 0.3,-0.6 0.4,-1.2 0.1,-0.6 0.2,-1.4 0.1,-2.2 0,-0.3 -0.1,-1 -0.3,-1.7 0,0.2 0.1,0.9 0.1,1.2 0,0.3 0,0.7 0.1,1 0,0.7 0.1,1.4 -0.4,1.9 0.6,-0.7 0.4,-1.6 0.3,-2.5 -0.1,-0.6 0,-1.2 -0.1,-1.8 -0.1,0.4 0,0.9 0,1.3 0,0.6 0.1,1.1 -0.3,2.1 -0.4,1.2 -0.8,1.9 -0.8,1.9 z"
               class="st10"
               inkscape:connector-curvature="0"
               style="fill:#9c27b0" />
            <path
               id="path127"
               d="m 172.7,174.6 c -0.5,-0.4 -0.9,-0.7 -1.2,-1.2 -0.4,-0.6 -0.3,-1.2 -0.7,-1.8 0.4,0.2 0.9,0.3 1.2,0.7 0.4,0.6 0.2,1.4 0.5,1.9 -0.3,-0.5 -0.3,-1.3 -1,-1.7 0,0.8 0.5,1.5 1.2,2.1 z"
               class="st11"
               inkscape:connector-curvature="0"
               style="clip-rule:evenodd;fill:#9c27b0;fill-rule:evenodd" />
            <path
               id="path129"
               d="m 139,182.7 0,-0.4 c -0.4,0 -0.8,0 -1.2,0 l 0,0 C 133,182 128.4,177.6 124.7,175 l 0,0 c -2.9,-2.1 -6.3,-3.1 -9.7,-3.3 l 0,0 c -4,-0.3 -8.2,0.5 -12.1,1.8 l 0,0 c -4.1,1.4 -9.3,3.7 -13.7,3.4 l 0,0 c -2.6,-0.2 -4.9,-1.2 -6.7,-3.8 l 0,0 -0.3,0.2 c 1.9,2.7 4.4,3.8 7,4 l 0,0 c 4.6,0.3 9.8,-2 13.9,-3.4 l 0,0 c 3.9,-1.3 8,-2.1 11.9,-1.8 l 0,0 c 3.4,0.2 6.6,1.2 9.5,3.2 l 0,0 c 3.6,2.6 8.3,7 13.3,7.3 l 0,0 c 0.4,0.1 0.8,0.1 1.2,0.1 l 0,0 z"
               class="st10"
               inkscape:connector-curvature="0"
               style="fill:#9c27b0" />
            <path
               id="path131"
               d="m 91.2,171 c -1.3,-0.3 -2.4,-0.5 -3.4,-1.1 -1.4,-0.8 -1.7,-1.9 -3,-2.7 1,-0.1 2.1,-0.2 3,0.2 1.3,0.6 1.7,2.3 2.7,3.1 -1,-0.7 -1.7,-2.2 -3.4,-2.1 0.8,1.1 2.3,2 4.1,2.6 z"
               class="st11"
               inkscape:connector-curvature="0"
               style="clip-rule:evenodd;fill:#9c27b0;fill-rule:evenodd" />
            <path
               id="path133"
               d="m 120.4,173.4 c -1.4,0.7 -2.6,1.5 -4,1.8 -1.9,0.4 -3.1,-0.3 -5,0 0.8,-0.9 1.7,-1.9 2.9,-2.3 1.7,-0.5 3.5,0.7 5,0.5 -1.5,0.2 -3.4,-0.6 -4.9,0.9 1.7,0.5 3.8,0.1 6,-0.9 z"
               class="st11"
               inkscape:connector-curvature="0"
               style="clip-rule:evenodd;fill:#9c27b0;fill-rule:evenodd" />
          </g>
        </g>
      </g>
    </g>
  </g>
  <style
     id="style3"
     type="text/css">
	.st0{fill:#414042;}
	.st1{font-family:'Cotillion';}
	.st2{font-size:60px;}
	.st3{letter-spacing:3;}
	.st4{letter-spacing:-15;}
	.st5{font-size:35px;}
	.st6{fill:#6D6E71;}
	.st7{font-family:'Open Sans';}
	.st8{font-size:13px;}
	.st9{letter-spacing:1;}
	.st10{fill:rgb(156,39,176);}
	.st11{fill-rule:evenodd;clip-rule:evenodd;fill:rgb(156,39,176);}
</style>
  <style
     id="style3-2"
     type="text/css">
	.st0{fill:#414042;}
	.st1{font-family:'Cotillion';}
	.st2{font-size:60px;}
	.st3{letter-spacing:3;}
	.st4{letter-spacing:-15;}
	.st5{font-size:35px;}
	.st6{fill:#6D6E71;}
	.st7{font-family:'Open Sans';}
	.st8{font-size:13px;}
	.st9{letter-spacing:1;}
	.st10{fill:rgb(156,39,176);}
	.st11{fill-rule:evenodd;clip-rule:evenodd;fill:rgb(156,39,176);}
</style>
</svg>
