<?xml version="1.0" standalone="no"?>
<!DOCTYPE svg PUBLIC "-//W3C//DTD SVG 20010904//EN"
 "http://www.w3.org/TR/2001/REC-SVG-20010904/DTD/svg10.dtd">
<svg version="1.0" xmlns="http://www.w3.org/2000/svg"
 width="2803.000000pt" height="2803.000000pt" viewBox="0 0 2803.000000 2803.000000"
 preserveAspectRatio="xMidYMid meet">
<metadata>
Created by potrace 1.11, written by Peter Selinger 2001-2013
</metadata>
<g transform="translate(0.000000,2803.000000) scale(0.100000,-0.100000)"
fill="#000000" stroke="none">
<path d="M5608 19403 c-25 -30 -29 -53 -12 -86 18 -37 146 -161 187 -183 17
-9 36 -33 48 -61 32 -74 59 -104 117 -130 30 -13 69 -35 86 -48 18 -13 47 -31
66 -39 l35 -15 -35 -1 c-19 -1 -44 -3 -55 -5 -11 -2 -43 -6 -71 -9 -76 -7
-240 -72 -300 -117 -42 -32 -54 -48 -63 -85 -13 -50 -8 -75 20 -116 11 -14 19
-34 19 -43 0 -9 13 -29 29 -45 16 -16 31 -36 34 -44 4 -9 21 -22 39 -29 18 -8
42 -26 53 -40 11 -15 34 -32 52 -38 69 -22 290 81 425 199 80 70 132 122 121
122 -6 0 -15 -5 -18 -10 -12 -19 -225 -170 -240 -170 -4 0 21 21 56 47 72 54
209 190 209 207 0 8 -2 8 -8 0 -14 -22 -159 -83 -278 -118 -147 -44 -193 -47
-71 -6 49 17 141 57 204 91 124 65 124 63 -7 45 -46 -7 -127 -17 -165 -21 -16
-2 -68 -8 -114 -15 -45 -6 -85 -10 -87 -8 -2 2 49 14 114 26 120 23 140 26
227 37 68 9 165 36 165 46 0 21 -145 46 -245 43 -33 -1 -84 -5 -114 -8 -30 -3
-52 -4 -50 -2 23 24 298 32 366 11 59 -18 58 -18 43 0 -18 22 -118 56 -172 58
-43 2 -46 4 -31 15 17 13 16 15 -8 33 -14 11 -61 35 -104 54 -43 19 -86 42
-94 51 -11 12 -4 10 21 -5 21 -12 67 -31 104 -41 36 -11 78 -27 91 -35 14 -9
27 -15 29 -12 3 2 -8 12 -23 22 -15 10 -50 41 -78 69 -27 28 -63 61 -80 74
-34 26 -16 19 30 -13 33 -22 107 -77 115 -85 3 -3 20 -18 37 -34 l32 -29 -20
53 c-25 66 -45 105 -77 150 l-24 35 31 -35 c17 -19 50 -74 74 -122 32 -66 49
-90 74 -102 49 -25 53 -22 37 44 -21 91 -39 119 -125 195 -79 70 -130 95 -312
156 -107 35 -172 64 -219 95 -37 24 -69 44 -71 44 -2 0 -11 -8 -19 -17z m367
-286 c6 -6 -1 -4 -15 4 -14 9 -64 39 -112 68 -48 28 -90 56 -93 61 -7 11 206
-117 220 -133z m-16 -611 c-2 -2 -17 -6 -34 -10 -22 -5 -26 -4 -15 4 14 9 59
15 49 6z m-96 -23 c-7 -2 -19 -2 -25 0 -7 3 -2 5 12 5 14 0 19 -2 13 -5z"/>
<path d="M23355 19377 c-45 -31 -103 -57 -220 -96 -88 -29 -173 -60 -190 -69
-63 -32 -195 -144 -215 -182 -30 -57 -50 -160 -30 -160 34 0 61 29 103 114 25
50 61 107 79 127 18 19 26 26 16 15 -30 -39 -98 -179 -98 -205 0 -2 24 16 53
41 54 45 111 88 137 103 20 12 -106 -113 -150 -148 -19 -15 -24 -21 -10 -13
32 19 93 42 146 56 23 5 59 21 80 35 l39 25 -30 -25 c-16 -14 -66 -41 -109
-60 -44 -19 -87 -41 -95 -50 -13 -13 -13 -16 2 -27 15 -11 10 -13 -33 -15 -55
-3 -152 -36 -170 -58 -15 -18 -16 -18 44 0 65 20 319 16 339 -5 8 -9 9 -11 0
-6 -18 10 -210 10 -273 1 -30 -5 -58 -9 -62 -9 -3 -1 -10 -4 -14 -8 -4 -5 -16
-8 -28 -8 -67 0 72 -45 173 -56 31 -3 112 -16 180 -30 69 -13 134 -24 145 -24
10 0 17 -3 13 -6 -3 -3 -46 -1 -94 6 -48 6 -104 13 -123 16 -19 2 -86 11 -149
19 -63 8 -117 15 -120 15 -3 0 37 -23 89 -52 105 -57 208 -99 288 -118 28 -6
54 -15 56 -19 17 -27 -355 90 -429 135 -32 19 -59 34 -61 34 -17 0 142 -157
211 -208 74 -54 80 -61 35 -36 -19 10 -36 22 -38 27 -2 4 -8 7 -14 7 -8 0
-122 82 -138 100 -16 17 -50 42 -50 36 0 -18 146 -145 230 -201 112 -74 198
-113 284 -131 27 -5 83 21 96 46 6 12 27 28 45 36 19 8 40 24 46 36 7 13 20
29 30 36 10 6 23 29 30 50 6 20 20 48 30 61 36 46 15 125 -45 175 -85 69 -286
131 -441 136 l-30 1 35 15 c19 8 48 26 66 39 17 13 56 35 86 48 58 26 86 56
119 132 12 27 31 51 48 60 51 26 188 167 194 200 6 29 -16 75 -39 81 -5 2 -36
-16 -69 -39z m-95 -152 c0 -2 -13 -11 -30 -20 -38 -19 -40 -11 -2 9 31 17 32
18 32 11z m-80 -48 c-18 -17 -119 -74 -105 -59 11 11 107 72 115 72 2 0 -2 -6
-10 -13z m-120 -71 c0 -2 -12 -11 -27 -20 l-28 -17 24 20 c23 21 31 25 31 17z
m157 -482 c-3 -3 -12 -4 -19 -1 -8 3 -5 6 6 6 11 1 17 -2 13 -5z m-43 -133 c4
-5 -3 -7 -14 -4 -23 6 -26 13 -6 13 8 0 17 -4 20 -9z"/>
<path d="M6452 19238 c-27 -123 -28 -193 -4 -270 21 -67 34 -86 22 -33 -15 68
0 235 21 235 29 0 42 -96 24 -174 -7 -31 -9 -54 -4 -50 5 3 9 10 9 16 0 6 12
41 26 77 44 109 33 180 -43 269 l-28 34 -23 -104z"/>
<path d="M22541 19300 c-75 -102 -80 -142 -34 -269 28 -76 41 -84 25 -15 -15
65 1 154 27 154 22 0 33 -159 17 -247 -10 -55 2 -37 23 35 26 85 28 170 8 247
-9 33 -20 78 -24 100 l-9 40 -33 -45z"/>
<path d="M16059 19060 c-287 -91 -560 -283 -900 -635 -133 -138 -151 -157
-236 -260 -86 -103 -82 -99 -148 -185 -215 -283 -290 -374 -464 -560 l-42 -45
37 65 c141 250 194 390 299 785 102 385 105 395 141 489 19 49 48 114 65 146
34 64 117 153 161 172 15 7 30 18 33 25 13 35 -78 -5 -202 -90 -83 -55 -237
-202 -319 -302 -27 -33 -51 -62 -54 -65 -21 -21 -114 -139 -205 -260 -60 -80
-116 -151 -123 -159 -7 -8 -21 -26 -30 -40 -9 -14 -24 -35 -34 -46 -9 -11 -45
-54 -80 -96 -34 -42 -76 -93 -93 -114 -99 -128 -183 -223 -315 -358 -381 -391
-759 -537 -1036 -402 -62 30 -108 69 -152 130 -65 89 -79 269 -32 425 80 270
267 471 521 562 82 29 285 33 334 6 44 -24 102 -85 125 -132 60 -125 10 -310
-117 -433 -74 -71 -68 -91 13 -42 137 84 232 211 258 348 27 147 -5 252 -99
323 -121 92 -282 96 -490 13 -294 -117 -573 -407 -683 -710 -109 -298 -56
-541 145 -674 186 -124 504 -94 768 71 129 81 346 273 460 408 17 19 51 60 76
90 36 42 350 457 476 629 10 14 27 36 39 50 11 14 70 91 130 171 59 80 111
147 114 150 3 3 27 33 54 68 58 76 155 182 167 182 14 0 -3 -32 -60 -112 -94
-128 -142 -216 -203 -368 -43 -107 -55 -145 -123 -395 -49 -177 -131 -443
-159 -519 -55 -146 -140 -273 -222 -334 -52 -38 -58 -52 -25 -52 18 0 219 121
285 172 75 57 260 260 451 493 54 66 101 122 104 125 3 3 40 50 81 104 229
305 258 341 389 485 99 109 276 279 382 366 45 38 154 113 209 144 48 28 30 7
-146 -166 -401 -395 -724 -856 -864 -1233 -47 -126 -58 -180 -56 -294 1 -93 3
-106 28 -143 35 -53 83 -75 168 -75 58 0 76 5 136 37 133 72 176 106 340 266
l71 69 -31 -62 c-25 -53 -30 -75 -31 -138 0 -64 4 -81 25 -112 32 -47 67 -67
127 -72 106 -9 283 93 457 262 l68 67 -33 -50 c-19 -27 -36 -52 -39 -55 -3 -3
-74 -108 -159 -235 -265 -394 -386 -532 -551 -623 -55 -30 -172 -67 -244 -75
-50 -7 -132 18 -162 48 -28 28 -32 79 -9 109 36 47 5 96 -61 96 -48 0 -82 -22
-100 -66 -20 -49 -17 -83 12 -121 105 -138 454 -128 759 22 161 79 284 182
411 345 69 88 822 1212 839 1253 7 18 15 48 17 67 l3 35 -124 0 -124 0 -2 -32
c-4 -55 -65 -154 -327 -533 -71 -104 -217 -255 -318 -330 -60 -45 -147 -75
-186 -66 -31 8 -48 45 -40 88 13 68 125 265 280 491 167 243 216 325 216 361
0 21 -3 22 -134 22 -74 0 -133 -3 -130 -8 14 -22 -18 -83 -135 -261 -138 -208
-188 -272 -302 -386 -162 -162 -287 -230 -372 -201 -78 26 -90 107 -43 288 35
134 59 189 207 472 106 203 210 365 334 525 146 187 194 243 285 330 193 183
357 290 453 294 10 1 15 6 12 11 -11 18 -76 8 -196 -30z"/>
<path d="M21805 18923 c-326 -42 -601 -180 -795 -398 l-45 -51 -121 -2 c-299
-3 -570 -69 -735 -178 -90 -60 -255 -221 -298 -292 -5 -9 -43 12 -135 73 -274
184 -512 279 -747 301 -278 25 -431 -5 -458 -89 -40 -121 90 -184 259 -127 81
27 133 34 255 34 147 0 190 -7 370 -61 72 -22 223 -95 322 -154 71 -43 84 -55
80 -73 -3 -11 -16 -59 -31 -106 -29 -99 -26 -85 -26 -110 0 -18 -3 -18 -47 8
-46 27 -225 116 -327 162 -62 27 -239 87 -286 95 -144 27 -207 32 -343 30
-164 -3 -187 -6 -317 -36 -200 -48 -319 -120 -385 -234 -67 -115 -68 -272 -3
-366 26 -39 8 -48 -97 -47 -85 1 -95 -1 -168 -37 l-79 -38 34 -14 c65 -28 112
-27 168 3 70 38 83 57 23 35 -42 -16 -88 -19 -101 -6 -10 10 79 38 138 42 l65
5 -38 -38 c-50 -51 -81 -106 -102 -184 -10 -36 -24 -77 -32 -92 -19 -39 -18
-40 37 -19 104 39 156 106 166 211 3 25 7 56 10 70 8 37 -2 22 -26 -40 -20
-50 -73 -120 -92 -120 -12 0 31 109 61 155 33 51 71 93 71 79 0 -6 17 -18 39
-26 36 -14 40 -20 60 -89 13 -41 42 -111 66 -157 24 -45 40 -80 36 -77 -15 9
-102 163 -126 221 -26 63 -40 82 -23 33 6 -19 14 -88 17 -154 5 -88 15 -143
34 -205 32 -102 34 -105 70 -114 22 -5 27 -3 27 13 0 10 7 24 16 31 34 29 36
48 6 82 -54 65 -56 72 -5 20 54 -54 65 -58 107 -42 14 5 42 11 63 14 49 6 103
25 103 37 0 5 18 20 39 33 55 35 63 86 27 159 -26 53 -93 130 -156 179 l-35
28 30 1 c35 2 63 1 122 -3 34 -2 51 4 96 35 29 20 64 37 78 37 39 1 160 45
186 68 25 23 27 30 13 52 -7 12 -12 12 -22 2 -18 -18 -76 -15 -191 9 -201 42
-336 24 -416 -53 l-43 -42 26 -9 c21 -7 33 -4 59 16 33 25 110 67 124 67 4 0
-13 -13 -38 -29 -86 -58 -100 -76 -47 -60 18 5 60 11 93 13 64 5 55 2 -64 -25
-44 -10 -51 -14 -35 -21 12 -5 3 -6 -26 -3 -111 12 -136 13 -150 4 -12 -7 -10
-8 7 -9 42 0 153 -61 206 -112 28 -27 37 -38 19 -24 -74 57 -262 143 -262 118
0 -15 58 -69 130 -122 18 -14 45 -36 59 -48 34 -31 -23 9 -139 97 -47 36 -74
53 -61 38 32 -35 23 -34 -41 5 -103 63 -121 96 -121 223 0 99 12 139 58 193
65 77 212 162 340 196 168 45 430 42 664 -8 31 -7 150 -45 176 -56 11 -5 49
-21 85 -35 74 -30 336 -159 363 -180 14 -10 19 -31 23 -96 11 -202 98 -383
260 -545 243 -242 630 -377 1209 -421 179 -13 564 -7 648 12 12 2 45 7 72 9
63 7 170 28 303 61 428 105 788 298 1011 542 l69 76 103 -65 c174 -109 324
-176 484 -216 78 -20 96 -23 200 -39 62 -10 408 -10 490 -1 122 13 231 42 355
93 43 18 82 24 185 29 72 3 139 8 150 10 11 2 45 7 75 11 190 24 408 89 597
177 l82 38 111 -32 c128 -38 129 -34 -11 -102 -140 -68 -250 -103 -399 -130
-129 -24 -153 -26 -320 -31 -85 -3 -156 -9 -157 -13 -1 -4 4 -15 12 -26 13
-18 26 -18 192 -13 98 3 189 8 203 11 14 3 43 7 65 10 174 20 430 94 585 169
58 27 107 50 110 49 94 -11 116 -15 120 -17 9 -6 170 -18 240 -18 268 -1 492
83 684 258 47 43 136 157 130 166 -11 18 -30 5 -85 -61 -129 -153 -311 -265
-480 -295 -19 -4 -56 -11 -84 -15 -66 -12 -345 -5 -417 10 l-56 12 72 59 c155
124 266 266 266 341 0 51 -48 92 -101 85 -57 -8 -94 -42 -140 -131 -23 -45
-61 -109 -85 -143 -44 -62 -160 -173 -180 -173 -11 0 -168 43 -203 56 -9 3 20
27 75 63 209 135 336 259 587 571 36 45 139 201 135 205 -3 3 -24 -23 -48 -57
-115 -166 -354 -431 -485 -538 -80 -65 -194 -143 -278 -189 l-59 -32 -91 31
c-51 17 -101 34 -112 39 -11 5 -49 19 -85 31 -36 12 -74 26 -85 30 -11 5 -39
15 -62 22 l-41 14 43 64 c150 228 236 506 200 647 -28 108 -82 186 -155 223
-102 52 -229 18 -265 -72 -28 -71 -11 -134 45 -163 l30 -16 0 43 c0 102 77
176 163 156 93 -20 161 -97 172 -193 10 -84 -45 -285 -117 -430 -30 -59 -146
-245 -154 -245 -2 0 -21 7 -41 14 -205 79 -605 170 -848 193 -162 15 -463 9
-635 -13 -126 -16 -367 -86 -510 -147 -35 -14 -36 -14 -185 58 -408 199 -603
288 -786 360 -79 31 -153 61 -164 66 -89 41 -480 143 -630 164 -71 10 -85 15
-133 49 -122 87 -322 166 -462 181 -30 4 -56 8 -58 10 -7 7 144 152 199 192
114 84 323 178 435 198 251 44 367 44 614 -1 34 -6 193 -58 258 -85 28 -12 34
-12 42 1 7 12 -1 20 -38 36 -70 31 -193 69 -262 80 -14 2 -47 9 -75 15 -49 11
-331 20 -390 12z m-880 -548 c-14 -36 -24 -66 -23 -68 0 -1 -2 -12 -6 -24 -8
-24 -10 -25 -121 -44 -80 -13 -222 -59 -304 -97 -134 -62 -316 -213 -386 -319
l-27 -43 -27 19 c-14 10 -35 28 -45 40 -18 19 -18 25 -6 62 40 121 239 321
420 421 131 72 292 114 452 117 l97 2 -24 -66z m213 23 c93 -22 203 -64 282
-107 l51 -28 -280 1 -281 1 6 35 c4 19 18 56 32 82 25 47 26 48 66 42 23 -3
79 -15 124 -26z m132 -182 c90 -9 140 -17 240 -37 83 -17 98 -23 123 -51 60
-70 105 -195 100 -282 -14 -276 -315 -371 -570 -179 -156 117 -238 275 -259
495 l-5 57 58 3 c76 4 244 1 313 -6z m257 8 c-3 -3 -12 -4 -19 -1 -8 3 -5 6 6
6 11 1 17 -2 13 -5z m-643 -75 c0 -65 5 -113 20 -189 11 -52 59 -157 102 -222
107 -160 258 -241 434 -233 97 5 169 37 237 104 89 89 124 171 118 278 -4 81
-25 151 -59 203 l-25 38 42 -13 c188 -58 561 -226 772 -347 177 -102 575 -363
575 -377 -2 -19 -594 -447 -745 -538 -184 -111 -403 -188 -560 -198 -44 -3
-114 -8 -155 -12 -119 -10 -425 -3 -495 12 -11 2 -42 7 -70 10 -206 24 -508
117 -676 207 -182 97 -344 258 -412 408 -26 57 -60 176 -55 190 2 5 41 -18 88
-51 90 -62 315 -213 364 -243 151 -95 484 -235 619 -262 10 -2 26 -6 35 -8 70
-22 288 -27 407 -10 103 15 241 56 270 79 20 16 20 16 -3 10 -28 -8 -58 -12
-132 -20 -44 -4 -29 2 70 29 240 66 396 145 510 258 30 30 100 103 155 162 55
60 124 127 154 150 l55 41 -55 7 c-103 12 -340 2 -394 -17 -129 -46 -212 -123
-347 -323 -50 -75 -107 -153 -126 -174 -67 -74 -18 -37 72 55 170 174 260 230
390 243 l70 7 -22 -30 c-68 -95 -273 -253 -426 -327 -115 -56 -190 -88 -211
-93 -49 -9 -326 -11 -380 -2 -172 28 -337 85 -523 181 -122 63 -201 112 -448
274 l-203 134 4 74 c4 91 15 166 24 166 8 0 193 -181 254 -249 26 -29 49 -52
51 -50 2 2 8 18 14 36 10 31 9 33 -95 143 l-105 110 28 38 c154 204 439 362
715 397 30 4 56 9 58 11 13 12 16 -3 15 -67z m847 45 c365 -68 706 -199 1386
-530 209 -102 234 -117 217 -128 -10 -6 -50 -31 -89 -55 -38 -23 -77 -47 -86
-53 -14 -9 -51 12 -210 118 -356 238 -580 364 -864 486 -138 60 -376 148 -398
148 -13 0 -58 29 -46 30 4 0 44 -7 90 -16z m2834 -488 c145 -17 203 -26 335
-52 164 -32 524 -136 535 -153 8 -13 -169 -186 -257 -252 -44 -32 -108 -75
-143 -94 -62 -35 -63 -35 -156 -30 -94 6 -232 21 -279 30 -14 3 -36 7 -50 10
-183 34 -352 82 -563 159 -94 34 -363 147 -476 199 l-54 26 39 16 c44 19 239
83 269 89 11 3 40 9 65 15 73 16 169 30 260 37 47 4 86 7 88 9 5 4 332 -3 387
-9z m-1032 -242 c67 -31 136 -62 152 -69 204 -93 607 -233 725 -251 19 -3 38
-8 43 -11 4 -2 20 -6 35 -9 15 -2 50 -9 77 -14 28 -6 68 -12 90 -15 22 -2 59
-7 83 -10 23 -2 62 -6 87 -7 25 0 45 -2 45 -4 0 -6 -159 -54 -207 -64 -136
-25 -404 -34 -560 -18 -237 25 -515 126 -741 271 l-73 47 25 33 c35 46 88 156
81 167 -12 19 17 9 138 -46z m-214 -31 c-46 -82 -53 -93 -62 -93 -11 0 -77 44
-77 51 0 8 151 99 163 99 5 0 -6 -26 -24 -57z m2401 -30 c102 -35 189 -68 193
-72 18 -18 -336 -140 -473 -164 -14 -3 -45 -8 -70 -12 -25 -4 -53 -9 -62 -10
-51 -10 -238 -25 -238 -19 0 2 31 24 69 49 89 59 221 174 289 253 50 57 55 60
80 51 15 -6 110 -40 212 -76z m-7133 11 c-2 -3 -17 -7 -33 -10 -17 -2 -24 -1
-17 4 13 8 58 14 50 6z m146 -1 c-23 -2 -64 -2 -90 0 -26 2 -7 3 42 3 50 0 71
-1 48 -3z m4458 -80 c21 -16 39 -31 39 -36 0 -17 -154 -173 -222 -224 -201
-151 -519 -293 -789 -352 -25 -6 -54 -13 -65 -17 -10 -3 37 23 106 58 189 96
306 174 598 395 147 111 273 202 280 202 8 1 31 -11 53 -26z m-5009 -90 c9
-10 23 -33 33 -52 10 -19 63 -82 119 -140 119 -125 75 -90 -75 59 -117 117
-142 150 -111 150 10 0 26 -8 34 -17z m223 -123 c10 -11 16 -20 13 -20 -3 0
-13 9 -23 20 -10 11 -16 20 -13 20 3 0 13 -9 23 -20z"/>
<path d="M23936 17609 c-66 -16 -121 -30 -122 -32 -2 -1 45 -1 104 0 119 2
198 -17 261 -64 31 -24 32 -27 15 -36 -11 -6 -71 -12 -134 -13 -98 -2 -131 2
-226 26 -61 15 -121 33 -134 40 -12 6 -24 9 -27 6 -9 -9 238 -122 306 -141 73
-19 168 -23 291 -10 47 4 122 8 168 8 45 -1 82 2 82 5 0 3 -38 43 -85 88 -159
155 -262 181 -499 123z"/>
<path d="M27135 18910 c-241 -124 -308 -220 -314 -445 -1 -44 -4 -112 -6 -150
l-3 -70 24 105 c28 124 74 220 123 261 20 16 39 29 43 29 9 0 2 -58 -18 -134
-19 -75 -92 -232 -137 -295 -49 -68 -53 -79 -20 -48 16 15 32 25 35 21 4 -3
14 8 22 24 9 17 22 36 29 44 28 28 110 145 132 188 25 50 49 131 60 200 14 85
15 95 26 150 6 30 18 72 26 93 9 21 14 39 12 40 -2 2 -17 -4 -34 -13z"/>
<path d="M1885 18903 c13 -30 42 -145 49 -193 26 -187 62 -278 160 -405 25
-32 46 -62 46 -67 0 -25 160 -250 283 -398 164 -198 314 -335 491 -448 50 -32
74 -53 65 -56 -8 -3 -54 -17 -103 -31 l-89 -25 -38 26 c-79 54 -162 160 -227
290 -55 109 -122 153 -191 124 -58 -24 -64 -94 -15 -178 29 -49 165 -191 247
-257 43 -35 47 -40 29 -46 -40 -15 -161 -24 -312 -23 -125 0 -172 4 -244 22
-199 50 -367 161 -498 331 -18 23 -31 32 -42 28 -24 -9 -11 -29 81 -127 190
-202 421 -301 708 -302 120 0 202 7 309 27 l69 12 111 -53 c128 -61 229 -96
371 -129 89 -20 139 -30 265 -50 19 -3 118 -8 220 -11 l185 -5 18 25 c18 26
18 26 -6 26 -73 0 -316 10 -337 14 -14 3 -42 7 -62 10 -97 15 -120 20 -229 51
-132 38 -283 103 -340 146 -19 14 -15 17 86 47 l106 33 62 -30 c271 -128 543
-194 842 -206 125 -6 141 -8 240 -46 183 -69 267 -82 525 -83 124 -1 248 2
275 7 28 4 66 10 85 13 54 9 193 44 215 54 11 5 52 21 90 35 86 32 234 111
334 178 l74 50 19 -24 c149 -188 410 -372 693 -489 156 -64 410 -139 565 -166
25 -4 47 -8 50 -9 3 -1 32 -5 65 -9 32 -4 68 -10 78 -12 123 -23 576 -24 747
0 14 2 50 6 80 10 320 43 649 152 834 278 267 181 443 460 451 711 1 31 6 61
11 66 33 30 326 168 464 218 220 80 465 107 710 79 136 -16 304 -89 403 -176
75 -67 99 -116 100 -208 1 -42 -2 -92 -5 -110 -9 -44 -42 -98 -59 -94 -8 2
-11 0 -7 -4 9 -8 -6 -19 -75 -58 -47 -26 -51 -21 -18 18 13 15 -86 -54 -139
-97 -31 -26 -80 -58 -80 -54 0 3 28 26 63 52 85 64 138 114 132 125 -12 20
-160 -46 -250 -113 -34 -25 -32 -21 13 22 53 51 159 109 205 113 14 1 24 5 22
9 -4 6 -91 3 -160 -6 -27 -3 -33 -2 -20 3 16 7 10 10 -30 16 -28 5 -57 12 -65
16 -8 4 -46 10 -83 13 -38 3 -71 8 -75 11 -7 8 143 -5 232 -19 l40 -7 -30 25
c-16 13 -45 34 -64 46 -19 11 -31 21 -27 21 13 0 69 -31 112 -62 38 -27 96
-35 86 -12 -21 51 -85 92 -168 108 -88 17 -148 14 -277 -13 -107 -23 -181 -27
-191 -11 -10 16 -22 11 -28 -11 -8 -28 34 -67 82 -75 20 -4 47 -12 61 -19 14
-7 41 -15 60 -17 20 -3 57 -20 83 -39 43 -30 54 -33 105 -31 91 5 96 5 115 3
15 -1 9 -9 -22 -35 -112 -94 -178 -199 -166 -263 7 -40 30 -73 50 -73 6 0 21
-11 33 -25 12 -14 31 -25 41 -25 11 0 23 -5 26 -10 4 -6 18 -9 33 -8 15 1 43
-4 63 -11 25 -8 44 -9 62 -2 38 15 104 103 154 206 42 85 45 89 20 21 -17 -48
-94 -180 -116 -200 -25 -23 -27 -58 -5 -77 9 -7 20 -24 25 -37 7 -18 14 -22
32 -17 32 10 32 10 66 123 28 91 32 115 30 215 0 61 2 121 6 132 3 11 -9 -11
-28 -50 -32 -66 -115 -205 -122 -205 -2 0 16 37 40 83 24 45 53 114 66 154 20
62 27 74 52 83 85 29 136 108 142 221 9 159 -75 299 -227 376 -66 33 -205 77
-279 88 -24 4 -63 10 -86 14 -23 5 -117 7 -210 6 -188 -3 -290 -20 -455 -79
-138 -49 -419 -181 -465 -218 -15 -12 -17 -7 -34 77 -6 33 -20 83 -30 110 -10
28 -19 53 -19 57 0 12 143 96 240 141 256 119 502 154 710 101 168 -43 157
-41 220 -31 51 9 69 20 94 59 20 31 14 86 -14 118 -18 21 -77 49 -120 57 -90
17 -345 4 -467 -22 -182 -41 -490 -192 -666 -328 l-37 -29 -22 28 c-44 60
-206 211 -274 256 -39 26 -105 61 -146 78 -80 32 -249 74 -333 84 -27 3 -63 8
-80 11 -16 2 -92 5 -167 5 -76 0 -138 4 -138 8 0 5 -31 40 -69 79 -238 245
-550 370 -926 371 -77 0 -165 -4 -195 -9 -30 -5 -73 -11 -95 -15 -21 -3 -47
-10 -57 -15 -10 -5 -18 -7 -18 -4 0 4 -87 -26 -222 -76 -17 -7 -25 -16 -21
-25 7 -20 21 -18 102 16 80 32 245 75 336 87 93 12 312 8 390 -6 273 -51 469
-148 639 -316 90 -88 91 -89 61 -93 -149 -15 -330 -81 -466 -167 -45 -29 -81
-44 -115 -49 -352 -43 -719 -161 -1219 -391 -74 -34 -224 -106 -484 -231 -105
-51 -106 -51 -141 -36 -54 24 -311 110 -345 115 -16 3 -55 10 -85 16 -30 6
-68 13 -85 16 -146 26 -577 27 -720 1 -11 -2 -42 -7 -70 -10 -122 -17 -224
-38 -375 -78 -112 -29 -284 -81 -326 -98 -19 -7 -28 1 -75 73 -159 240 -243
504 -203 638 16 52 63 108 115 134 101 53 209 -21 209 -141 l0 -45 30 16 c61
32 78 117 36 184 -64 100 -227 100 -323 -1 -63 -66 -103 -184 -96 -278 11
-142 93 -361 193 -514 28 -43 48 -82 43 -86 -9 -8 -88 -40 -113 -46 -8 -1 -90
-30 -182 -64 -92 -33 -171 -60 -175 -60 -14 0 -172 97 -256 157 -100 72 -253
217 -360 343 -45 52 -84 97 -87 100 -20 17 -165 218 -195 270 -5 8 17 -12 48
-45 l57 -60 -56 84 c-66 101 -97 159 -123 238 -22 64 -45 182 -37 190 3 3 19
-5 37 -17 61 -44 104 -136 143 -305 l14 -60 -3 55 c-2 30 -5 100 -6 155 -6
216 -65 310 -271 424 -65 36 -84 39 -73 14z m6217 -533 c14 -30 29 -66 32 -80
l5 -25 -279 -1 c-154 0 -279 1 -277 2 10 10 160 80 205 96 88 31 234 67 262
65 20 -2 31 -14 52 -57z m283 45 c122 -23 272 -87 373 -158 122 -85 269 -243
320 -343 l21 -41 -47 -40 c-26 -22 -50 -42 -53 -44 -4 -2 -27 23 -51 56 -54
73 -153 167 -231 218 -131 87 -330 164 -473 183 -64 8 -71 12 -77 49 -7 39
-27 97 -38 110 -22 24 -4 27 109 22 64 -3 131 -9 147 -12z m-830 -185 c-3 -5
-12 -10 -18 -10 -7 0 -6 4 3 10 19 12 23 12 15 0z m549 -9 l49 -1 -7 -67 c-14
-140 -55 -251 -130 -355 -113 -158 -232 -229 -386 -230 -196 -2 -315 109 -313
292 2 93 29 174 83 246 34 46 46 54 91 63 110 24 227 42 304 48 44 3 81 6 82
7 2 2 129 0 227 -3z m-660 -11 c-5 -5 -50 -21 -99 -35 -142 -41 -404 -149
-595 -244 -214 -107 -384 -208 -646 -383 l-200 -135 -40 27 c-47 33 -121 76
-151 90 -13 5 -23 12 -23 15 0 6 341 173 645 315 231 108 625 257 750 284 11
3 70 16 130 30 61 14 130 29 155 32 25 3 47 8 49 10 2 2 11 4 20 4 10 0 12 -3
5 -10z m854 -14 c142 -30 271 -80 386 -148 87 -52 218 -168 270 -240 l27 -37
-109 -111 c-109 -110 -110 -112 -100 -143 6 -18 12 -34 14 -36 2 -2 27 23 56
54 71 77 143 148 214 213 55 50 59 52 66 31 9 -23 14 -63 24 -166 l6 -62 -39
-24 c-21 -13 -123 -80 -228 -149 -412 -271 -621 -370 -883 -418 -88 -16 -135
-18 -262 -14 -85 3 -168 5 -183 6 -16 0 -24 4 -18 7 6 4 -6 13 -27 20 -209 74
-477 258 -574 394 l-22 30 60 -6 c82 -8 96 -12 155 -42 70 -35 116 -72 237
-192 57 -57 105 -103 108 -103 2 0 -16 25 -41 56 -25 31 -82 110 -126 175
-130 195 -232 280 -379 315 -54 13 -383 14 -396 1 -3 -3 8 -13 24 -22 27 -16
105 -93 283 -280 160 -169 297 -243 594 -320 99 -26 74 -32 -45 -10 -41 7 -76
12 -78 10 -8 -7 163 -64 243 -80 120 -25 328 -25 445 -1 248 51 571 198 840
384 250 172 293 201 301 197 8 -6 -14 -110 -38 -175 -71 -192 -235 -353 -482
-474 -169 -83 -420 -156 -621 -182 -25 -3 -56 -7 -70 -10 -112 -18 -518 -24
-528 -7 -4 6 -41 11 -82 12 -41 1 -88 4 -105 6 -16 3 -41 7 -55 9 -159 26
-391 130 -606 272 -158 105 -613 446 -608 456 8 13 439 295 544 355 147 85
361 191 520 258 143 60 360 138 360 129 0 -3 -11 -20 -24 -37 -41 -55 -68
-145 -70 -228 -1 -68 3 -83 37 -151 42 -87 123 -168 197 -200 56 -25 191 -31
259 -13 239 63 415 320 416 609 l0 98 45 -6 c25 -3 55 -7 68 -10z m-3328 -490
c108 -12 151 -19 255 -42 61 -13 155 -40 210 -60 55 -20 108 -38 118 -41 10
-3 16 -10 15 -15 -7 -21 -459 -210 -657 -275 -101 -32 -336 -94 -411 -107 -19
-3 -44 -8 -55 -10 -63 -11 -187 -24 -295 -31 -70 -4 -78 -2 -136 30 -99 56
-215 146 -313 245 -50 50 -91 96 -91 100 0 9 243 88 325 106 6 1 30 7 55 14
25 7 56 14 70 16 14 3 33 7 42 10 9 3 25 6 35 8 10 2 36 7 58 11 67 12 78 14
145 24 36 6 103 13 150 17 47 3 86 7 88 9 4 4 343 -4 392 -9z m687 -194 c6 -4
21 -28 32 -52 11 -25 33 -68 50 -96 l29 -50 -81 -52 c-165 -104 -423 -215
-549 -237 -18 -3 -53 -11 -77 -16 -138 -31 -496 -33 -651 -4 -67 13 -210 58
-210 67 0 4 19 9 43 9 23 1 51 3 62 4 37 4 130 17 145 20 36 7 68 13 105 20
82 15 325 85 451 130 130 48 405 163 544 229 80 38 88 40 107 28z m-2028 -93
c89 -99 181 -177 305 -259 l59 -39 -59 4 c-266 18 -491 67 -722 160 -51 21
-90 41 -85 45 4 4 55 24 113 45 58 20 150 54 205 75 55 21 105 38 110 39 6 0
39 -31 74 -70z m2214 -11 l28 -20 -32 -24 c-18 -13 -36 -21 -41 -18 -8 5 -45
71 -60 107 -7 15 -3 15 35 -4 23 -12 55 -30 70 -41z m4577 5 c0 -5 -26 -7 -57
-5 -101 5 -111 9 -25 11 45 0 82 -2 82 -6z m-4362 -165 c321 -244 423 -317
584 -412 103 -60 238 -126 259 -126 7 0 10 -3 6 -6 -12 -12 -268 62 -401 115
-274 111 -490 257 -638 432 l-43 51 35 29 c19 15 39 29 43 29 5 0 75 -50 155
-112z m4599 106 c-3 -3 -12 -4 -19 -1 -8 3 -5 6 6 6 11 1 17 -2 13 -5z m-60
-10 c-3 -3 -12 -4 -19 -1 -8 3 -5 6 6 6 11 1 17 -2 13 -5z m302 -106 c-7 -13
-58 -68 -113 -123 -152 -151 -195 -185 -73 -58 59 61 107 118 107 125 0 20 56
78 75 78 13 0 14 -4 4 -22z"/>
<path d="M4834 17631 c-75 -18 -213 -120 -277 -204 l-26 -34 77 0 c42 0 118
-3 167 -8 225 -21 309 -4 518 102 106 55 139 77 72 49 -19 -8 -35 -12 -35 -9
0 3 -6 1 -12 -5 -33 -26 -194 -56 -308 -56 -175 0 -193 7 -126 53 67 46 151
64 269 58 97 -5 115 -3 67 7 -14 2 -73 16 -132 30 -106 26 -193 31 -254 17z"/>
<path d="M6535 18665 c16 -67 31 -184 30 -240 -2 -84 -14 -157 -26 -150 -19
12 -40 81 -40 130 0 53 10 145 18 158 2 4 0 7 -5 7 -5 0 -14 -15 -19 -32 -6
-18 -23 -64 -38 -103 -30 -82 -34 -153 -10 -209 20 -46 84 -143 111 -168 18
-16 19 -15 20 10 0 15 3 50 7 77 6 47 8 60 24 125 4 14 6 66 5 115 0 76 -6
106 -37 195 -36 104 -55 143 -40 85z"/>
<path d="M22485 18608 c-51 -137 -66 -283 -36 -360 9 -23 22 -111 27 -173 1
-16 2 -32 3 -34 3 -11 93 116 116 164 43 87 38 142 -25 300 -36 90 -44 91 -25
5 18 -81 2 -203 -29 -229 -38 -32 -43 267 -6 365 6 15 9 29 7 31 -3 2 -17 -29
-32 -69z"/>
<path d="M6649 18525 c65 -49 103 -90 127 -136 17 -34 8 -37 -41 -14 -28 14
-45 32 -102 104 -15 18 9 -45 39 -103 27 -52 52 -73 113 -91 56 -16 135 -28
135 -19 0 3 -15 24 -33 47 -18 23 -39 55 -47 71 -21 41 -108 117 -177 154 -34
17 -64 32 -68 32 -4 0 20 -20 54 -45z"/>
<path d="M22387 18538 c-81 -44 -140 -99 -191 -178 -24 -37 -49 -71 -55 -74
-23 -15 -9 -24 32 -20 69 7 140 32 170 59 26 25 36 43 71 130 16 39 16 39 -1
15 -46 -66 -131 -125 -150 -106 -16 16 86 129 162 180 54 36 33 32 -38 -6z"/>
<path d="M22606 18491 c-17 -27 73 -241 152 -363 68 -103 112 -150 207 -221
44 -33 79 -63 78 -67 -1 -5 4 -10 11 -13 16 -6 76 28 76 44 0 37 -52 94 -154
171 -125 94 -181 145 -221 206 -15 23 -30 41 -32 38 -2 -2 10 -32 26 -67 17
-34 30 -64 28 -66 -9 -8 -159 306 -152 318 6 8 4 10 -5 4 -10 -6 -12 -4 -7 8
7 18 2 23 -7 8z"/>
<path d="M6416 18464 c-3 -9 -1 -12 4 -9 6 3 10 4 10 1 0 -10 -161 -321 -171
-331 -5 -5 9 28 31 73 23 46 40 86 37 88 -2 2 -20 -20 -40 -48 -46 -67 -69
-88 -202 -188 -166 -125 -197 -178 -126 -215 25 -13 55 -7 51 9 -1 4 34 33 77
65 149 109 252 256 336 481 20 53 22 68 12 77 -10 9 -14 9 -19 -3z"/>
<path d="M6295 18414 c-108 -97 -324 -220 -341 -193 -11 18 -24 -3 -17 -29 4
-15 7 -47 7 -71 1 -41 4 -45 30 -52 36 -10 52 1 183 129 52 51 102 110 116
138 14 27 37 66 51 87 14 20 24 37 23 37 -1 0 -24 -21 -52 -46z"/>
<path d="M22636 18447 c3 -10 9 -15 12 -12 3 3 0 11 -7 18 -10 9 -11 8 -5 -6z"/>
<path d="M22712 18452 c36 -80 103 -175 171 -243 121 -121 158 -149 188 -142
41 10 48 21 38 55 -4 17 -7 34 -4 38 2 3 6 18 9 33 4 22 1 26 -17 25 -56 -3
-248 109 -345 200 -24 23 -42 38 -40 34z"/>
<path d="M6336 18313 c-6 -14 -5 -15 5 -6 7 7 10 15 7 18 -3 3 -9 -2 -12 -12z"/>
<path d="M1773 18224 c-8 -3 2 -17 25 -37 20 -18 57 -54 82 -82 129 -143 210
-195 375 -240 80 -22 150 -34 105 -18 -55 20 -169 79 -222 114 -62 43 -138
114 -138 131 0 12 66 0 116 -22 23 -10 76 -50 118 -90 l76 -73 -74 110 c-123
180 -160 203 -336 209 -63 2 -120 1 -127 -2z"/>
<path d="M27035 18221 c-86 -21 -159 -87 -235 -211 -18 -30 -45 -68 -59 -85
-14 -16 12 6 57 49 84 78 135 109 205 121 46 9 47 -2 6 -49 -56 -64 -198 -154
-300 -190 -70 -24 -19 -18 77 9 173 49 235 90 393 259 29 32 67 66 83 76 l29
17 -38 7 c-50 8 -180 6 -218 -3z"/>
<path d="M2260 18116 c0 -2 8 -10 18 -17 15 -13 16 -12 3 4 -13 16 -21 21 -21
13z"/>
<path d="M10723 17746 c3 -7 15 -45 26 -83 21 -69 80 -163 103 -163 6 0 2 10
-9 23 -28 31 -45 65 -53 110 -4 20 -6 37 -4 37 13 0 63 -69 69 -94 4 -18 9
-25 12 -17 10 25 -17 118 -40 139 -21 20 -92 62 -103 62 -4 0 -4 -6 -1 -14z"/>
<path d="M18283 17739 c-60 -28 -90 -71 -97 -144 l-7 -60 15 39 c8 22 28 53
45 70 l31 30 -11 -39 c-14 -51 -43 -108 -63 -124 -9 -8 -16 -17 -16 -22 0 -11
48 34 77 73 13 18 33 64 44 103 12 38 26 76 31 83 14 16 1 14 -49 -9z"/>
<path d="M11030 17305 c0 -3 11 -18 25 -33 46 -50 110 -192 86 -192 -20 0 -80
80 -96 129 -17 52 -29 69 -21 29 3 -13 7 -45 10 -71 7 -65 40 -132 81 -163 42
-32 139 -70 132 -52 -3 7 -18 51 -33 98 -34 110 -47 133 -103 193 l-46 50 70
-6 c39 -3 88 -13 110 -23 37 -15 38 -17 18 -25 -23 -8 -80 4 -125 27 -43 22
-33 11 20 -24 87 -56 120 -61 210 -29 33 11 43 27 18 27 -8 0 -41 14 -74 31
-63 32 -128 41 -210 29 -23 -4 -45 -3 -48 2 -6 9 -24 11 -24 3z"/>
<path d="M11002 17163 c1 -42 5 -60 12 -56 6 3 5 0 -1 -8 -16 -16 -17 -33 -1
-23 7 5 8 3 2 -7 -5 -8 -10 -34 -11 -59 -3 -49 -49 -191 -90 -278 -44 -93 -40
-156 9 -147 24 5 32 12 33 28 1 7 14 39 29 72 16 33 34 92 41 130 15 85 11
244 -9 340 l-15 70 1 -62z"/>
<path d="M18019 17138 c-14 -82 -17 -236 -6 -315 7 -55 38 -142 63 -181 8 -12
12 -27 9 -32 -10 -15 37 -29 59 -18 26 14 16 71 -33 184 -51 117 -78 209 -75
259 0 22 -4 46 -10 54 -8 10 -8 13 0 8 7 -4 11 14 13 53 1 33 0 60 -3 60 -2 0
-10 -33 -17 -72z"/>
<path d="M22808 15925 c-2 -2 -21 -5 -43 -7 -167 -19 -382 -173 -601 -429
-282 -330 -559 -737 -936 -1374 -65 -110 -123 -207 -128 -215 -5 -8 -26 -44
-46 -80 -21 -36 -66 -112 -102 -170 -36 -58 -128 -217 -205 -355 -116 -208
-223 -376 -311 -490 -10 -12 -4 14 15 70 16 50 43 136 59 193 34 117 84 293
95 337 5 17 9 32 10 35 1 5 13 85 20 140 3 19 5 96 5 170 -1 168 -5 260 -27
610 -4 69 -8 271 -7 450 0 291 2 335 21 421 12 53 28 114 38 135 28 65 97 197
109 210 6 6 24 28 40 48 16 21 49 51 73 67 49 34 56 59 17 59 -24 0 -134 -65
-159 -94 -5 -6 -35 -31 -65 -56 -87 -70 -229 -217 -325 -335 -114 -140 -378
-517 -545 -779 -247 -387 -603 -908 -769 -1126 -253 -332 -583 -670 -781 -800
-12 -8 -32 -22 -44 -31 -87 -66 -286 -170 -416 -217 -226 -82 -505 -92 -675
-24 -208 83 -356 254 -417 482 -32 119 -33 363 -3 500 3 14 10 46 15 71 20 99
68 219 148 364 99 181 280 385 427 482 145 96 320 166 475 189 66 9 185 7 249
-7 165 -33 313 -160 371 -318 25 -69 43 -183 36 -228 -3 -21 -8 -54 -11 -73
-25 -156 -139 -338 -252 -402 -56 -31 -58 -35 -44 -57 25 -39 156 35 267 151
172 180 267 395 265 603 0 76 -3 91 -25 169 -36 122 -153 243 -291 300 -102
43 -273 61 -419 43 -149 -18 -348 -97 -511 -203 -55 -36 -133 -91 -145 -104
-3 -3 -27 -23 -55 -44 -62 -49 -317 -304 -370 -371 -22 -27 -48 -59 -58 -70
-39 -43 -151 -219 -196 -307 -56 -110 -118 -272 -136 -356 -3 -12 -7 -32 -10
-44 -3 -13 -8 -41 -11 -62 -3 -22 -7 -43 -9 -46 -14 -22 -22 -300 -11 -365 3
-16 8 -48 12 -70 10 -69 60 -191 107 -263 146 -226 396 -353 697 -354 172 0
310 25 487 88 456 163 865 528 1373 1225 217 298 369 538 818 1294 135 226
237 377 371 548 157 201 154 197 147 172 -3 -11 -7 -32 -10 -46 -2 -15 -11
-40 -19 -55 -8 -16 -31 -76 -50 -134 -20 -58 -46 -132 -57 -165 -23 -64 -57
-208 -65 -278 -3 -23 -7 -53 -10 -67 -28 -142 -31 -324 -24 -1240 2 -280 -4
-518 -16 -580 -2 -14 -7 -43 -10 -64 -19 -131 -70 -277 -137 -389 -64 -107
-72 -127 -55 -144 32 -32 115 51 285 282 66 91 472 735 472 750 0 9 113 212
168 303 31 51 65 107 76 125 43 74 200 345 217 375 11 17 27 47 37 65 26 44
77 124 206 322 62 94 134 205 161 248 69 109 323 464 409 572 237 299 494 507
678 550 58 13 92 11 154 -10 47 -16 96 -12 129 9 69 45 46 210 -34 246 -25 11
-108 29 -113 25z"/>
<path d="M6645 15785 c-155 -33 -373 -111 -500 -180 -22 -12 -76 -41 -120 -65
-187 -102 -479 -315 -664 -485 -115 -106 -274 -270 -368 -381 -10 -12 -40 -48
-68 -79 -43 -50 -208 -255 -283 -351 -48 -62 -229 -304 -273 -365 l-45 -64
-540 1 c-296 1 -543 2 -547 3 -10 1 91 198 145 281 377 584 631 913 822 1069
l71 58 75 -6 c99 -8 367 -7 455 2 240 23 456 98 563 197 86 78 43 164 -97 196
-169 40 -575 -48 -884 -190 -43 -20 -84 -36 -91 -36 -6 0 -88 25 -181 55 -155
51 -466 136 -540 148 -311 52 -373 59 -561 59 -118 0 -212 -6 -285 -18 -14 -2
-42 -6 -63 -8 -60 -8 -234 -52 -333 -85 -502 -167 -1067 -599 -1276 -976 -150
-272 -186 -415 -152 -611 48 -273 271 -407 598 -358 140 20 269 72 397 157
123 83 325 282 342 339 6 21 8 41 4 46 -4 4 -33 -20 -64 -54 -212 -228 -466
-334 -690 -287 -199 41 -322 202 -325 427 -2 114 5 154 43 269 89 265 301 532
548 692 179 115 453 210 689 240 170 21 488 26 633 11 25 -3 72 -8 105 -11 33
-4 92 -11 130 -16 39 -6 83 -12 98 -14 30 -4 239 -42 272 -49 150 -32 339 -78
353 -85 8 -5 -18 -28 -71 -64 -244 -166 -494 -365 -636 -508 -68 -68 -191
-210 -299 -344 -15 -19 -237 -319 -266 -360 -8 -11 -41 -56 -74 -101 l-60 -81
-137 1 c-75 1 -141 -1 -146 -4 -5 -4 -11 -19 -15 -36 l-6 -30 136 1 135 0 -16
-25 c-10 -14 -48 -74 -86 -135 -146 -232 -366 -549 -458 -658 -10 -12 -55 -67
-101 -122 -106 -128 -330 -354 -433 -435 -213 -169 -413 -271 -610 -311 -75
-16 -300 -14 -369 2 -100 23 -169 72 -202 144 -27 57 -31 120 -10 170 16 37
34 49 88 59 43 8 79 46 72 79 -18 96 -33 129 -70 153 -47 31 -110 34 -221 10
-71 -15 -133 -78 -160 -161 -77 -236 52 -408 372 -501 75 -21 115 -26 235 -29
80 -2 172 1 205 5 33 5 85 12 115 15 30 4 58 9 61 11 3 2 21 6 40 9 28 5 112
24 179 40 215 53 509 180 712 306 223 140 431 321 628 548 30 35 60 69 65 75
6 6 28 34 50 61 21 28 42 52 45 55 27 23 276 380 370 530 l65 105 553 0 c413
0 551 -3 548 -11 -3 -7 -44 -72 -92 -145 -47 -74 -123 -190 -168 -259 -138
-212 -241 -369 -332 -510 -106 -162 -237 -363 -365 -560 -53 -80 -98 -150
-101 -156 -5 -7 66 -10 225 -10 l231 1 731 1095 c401 603 779 1161 839 1240
97 128 261 336 276 350 3 3 20 23 39 45 182 214 460 489 596 590 22 17 42 32
45 35 3 3 30 23 60 46 234 173 436 263 605 270 101 4 149 -11 212 -66 49 -43
93 -36 93 15 0 35 -33 55 -122 77 -126 30 -260 31 -393 3z m-1463 -254 c20 -7
40 -21 43 -31 8 -25 -21 -85 -52 -110 -36 -28 -150 -69 -239 -85 -75 -13 -273
-13 -334 0 -14 3 -36 7 -49 10 -40 7 -91 26 -91 33 0 11 108 77 171 105 59 27
172 64 223 73 17 3 49 9 71 13 57 11 213 6 257 -8z"/>
<path d="M26950 15274 c14 -37 12 -71 -6 -107 -15 -30 -316 -483 -569 -857
-690 -1020 -1070 -1595 -1118 -1692 -59 -119 -75 -184 -73 -296 3 -125 40
-197 132 -254 55 -34 116 -47 204 -44 62 3 89 10 155 41 194 92 401 255 634
500 42 44 122 127 177 185 97 101 266 319 279 361 17 53 -31 32 -80 -33 -216
-292 -458 -547 -680 -718 -211 -162 -352 -187 -399 -71 -18 45 -14 81 21 181
44 128 73 177 379 633 164 243 399 593 522 777 124 184 294 436 377 560 318
470 432 646 450 690 17 45 24 137 11 158 -4 7 -77 11 -216 11 l-209 0 9 -25z"/>
<path d="M25260 14843 c-72 -18 -147 -64 -229 -139 -78 -72 -113 -136 -119
-215 -14 -186 147 -278 327 -187 154 78 271 256 258 393 -6 60 -20 91 -56 122
-23 20 -42 27 -111 38 -8 1 -40 -4 -70 -12z"/>
<path d="M9298 13949 c-64 -10 -140 -35 -213 -72 -108 -54 -453 -307 -490
-360 -8 -12 -15 -18 -15 -13 0 5 16 31 35 57 19 27 35 51 35 54 0 3 23 40 51
81 62 92 77 130 70 169 l-6 30 -216 3 -216 2 -6 -48 c-3 -27 -16 -66 -29 -88
-22 -37 -255 -386 -541 -809 -75 -110 -201 -297 -281 -415 -129 -192 -496
-736 -752 -1115 -52 -77 -160 -237 -240 -355 -80 -118 -146 -219 -147 -225 -1
-6 74 -10 209 -11 l210 -1 31 46 c17 25 116 172 220 326 104 154 274 406 378
560 238 354 316 468 325 479 5 4 37 -21 73 -58 126 -129 254 -157 504 -111
130 24 136 25 206 46 277 82 569 296 817 600 296 363 403 642 354 926 -15 91
-47 156 -105 215 -71 71 -162 101 -261 87z m-60 -156 c56 -26 77 -67 78 -152
2 -94 -18 -178 -72 -313 -113 -278 -315 -571 -608 -878 -208 -219 -394 -331
-552 -332 -106 -1 -181 55 -205 155 -17 73 -6 141 39 227 55 107 433 659 472
690 3 3 42 46 85 95 205 234 358 379 480 456 120 76 200 90 283 52z"/>
<path d="M11758 13948 c-90 -12 -213 -65 -328 -142 -116 -79 -172 -118 -180
-126 -3 -3 -31 -25 -64 -49 -32 -24 -66 -51 -76 -60 -67 -64 -65 -54 15 67
102 157 117 188 106 228 l-7 29 -217 2 -217 3 0 -35 c0 -20 -6 -51 -14 -70
-14 -32 -249 -384 -851 -1275 -140 -206 -310 -458 -379 -560 -233 -346 -488
-725 -622 -922 -74 -108 -134 -199 -134 -201 0 -2 97 -4 216 -3 180 1 217 3
224 16 5 8 51 78 104 155 52 77 164 244 249 370 86 127 209 309 274 405 65 96
161 238 212 315 52 77 98 144 102 149 5 5 36 -20 71 -56 126 -130 264 -161
508 -113 47 9 97 18 112 20 48 7 206 64 280 101 268 134 491 333 722 644 186
250 268 452 270 669 1 114 -6 158 -34 232 -56 146 -190 227 -342 207z m-58
-156 c19 -9 45 -32 57 -51 21 -30 22 -43 19 -130 -5 -109 -23 -176 -91 -332
-67 -153 -127 -254 -277 -466 -127 -180 -374 -445 -510 -546 -142 -106 -243
-149 -349 -149 -113 0 -175 45 -205 150 -34 115 -2 191 211 507 199 297 258
373 427 560 291 321 432 433 603 480 20 6 81 -7 115 -23z"/>
<path d="M28002 13940 c-66 -27 -217 -47 -363 -49 l-85 -1 -105 -152 c-57 -84
-114 -173 -127 -198 -13 -25 -70 -106 -127 -181 -112 -146 -177 -248 -169
-261 12 -19 41 -5 69 33 17 22 51 68 78 102 26 34 65 89 87 122 77 118 298
418 309 423 18 7 45 -136 45 -238 0 -481 -85 -818 -289 -1135 -35 -54 -132
-157 -181 -191 -41 -29 -159 -88 -208 -104 -60 -19 -122 -14 -171 14 -67 40
-89 109 -66 207 9 38 -1 69 -22 69 -25 0 -88 -63 -122 -121 -102 -175 4 -240
383 -234 97 1 193 6 212 9 148 29 316 104 417 186 126 101 257 281 317 433 26
65 59 185 71 257 3 19 8 42 10 50 7 26 16 151 20 285 3 72 7 164 10 205 2 41
7 122 10 180 6 112 13 201 21 263 2 20 3 37 2 36 -2 0 -13 -4 -26 -9z"/>
<path d="M6340 13909 c-354 -72 -915 -459 -1176 -810 -180 -241 -259 -452
-257 -689 0 -128 25 -200 93 -273 108 -118 296 -135 479 -43 132 66 238 150
456 359 83 80 151 144 152 143 1 -1 -7 -31 -18 -66 -11 -36 -22 -90 -25 -120
-3 -30 -7 -64 -9 -76 -4 -29 18 -133 38 -170 41 -79 118 -126 211 -129 109 -4
192 25 319 109 119 79 395 334 549 506 41 47 104 114 139 150 35 36 83 90 105
120 23 30 56 71 73 90 39 42 73 112 62 123 -19 19 -49 -8 -121 -106 -118 -160
-226 -281 -500 -554 -171 -171 -205 -198 -317 -249 -127 -58 -200 -23 -204 98
-4 103 48 216 203 443 183 268 306 450 394 580 52 77 154 226 225 330 72 105
134 198 140 207 8 16 -7 17 -199 17 l-208 1 -74 -110 c-40 -61 -74 -110 -76
-110 -1 0 -2 15 -2 34 0 83 -93 178 -197 201 -61 14 -173 11 -255 -6z m272
-76 c54 -32 73 -75 71 -169 0 -57 -7 -94 -21 -127 -16 -35 -190 -305 -303
-467 -9 -14 -43 -65 -74 -113 -47 -73 -166 -228 -209 -273 -6 -6 -51 -55 -101
-109 -238 -260 -399 -355 -560 -330 -58 8 -117 60 -134 117 -45 149 27 317
305 709 107 150 204 260 429 483 175 174 285 254 400 293 54 17 155 11 197
-14z"/>
<path d="M22760 13914 c-324 -59 -845 -398 -1136 -739 -138 -161 -253 -372
-291 -530 -29 -122 -34 -285 -12 -368 37 -143 151 -232 305 -241 197 -11 374
94 709 417 83 80 151 144 153 143 1 -2 -7 -31 -18 -65 -88 -276 6 -488 220
-496 82 -3 130 9 215 52 83 42 149 88 241 169 181 157 272 245 401 389 39 44
103 112 141 152 38 39 79 85 90 101 12 16 50 64 86 107 65 79 85 122 60 132
-21 8 -38 -10 -126 -126 -118 -157 -240 -292 -495 -546 -146 -146 -185 -178
-263 -219 -99 -52 -138 -61 -182 -43 -54 23 -72 64 -66 151 6 89 59 200 180
380 102 152 252 373 333 491 108 158 441 650 449 662 5 9 -44 12 -202 12
l-207 1 -74 -110 c-41 -61 -75 -110 -75 -110 -1 0 -3 17 -4 37 -6 77 -80 160
-172 192 -56 19 -168 21 -260 5z m252 -81 c53 -30 76 -87 72 -179 -3 -46 -12
-94 -23 -119 -19 -43 -434 -673 -468 -710 -10 -11 -45 -54 -78 -94 -81 -101
-306 -328 -380 -384 -91 -70 -165 -100 -253 -103 -107 -4 -162 26 -197 109
-43 102 0 262 123 452 207 323 317 459 579 722 194 194 299 274 411 313 70 25
164 22 214 -7z"/>
<path d="M13157 13857 c2 -63 -28 -116 -331 -572 -292 -439 -323 -489 -410
-661 -44 -88 -58 -128 -66 -188 -34 -242 90 -403 302 -392 77 4 134 23 270 91
122 60 355 240 491 378 91 92 92 82 2 -43 -32 -45 -201 -295 -454 -672 -73
-108 -180 -256 -239 -330 -112 -140 -296 -332 -372 -389 -25 -18 -47 -36 -50
-39 -34 -36 -182 -113 -274 -144 -254 -84 -365 -88 -502 -18 -58 30 -94 72
-95 113 -2 56 0 65 28 105 30 45 35 78 17 115 -34 67 -177 71 -255 7 -41 -34
-72 -147 -57 -207 13 -52 72 -119 134 -153 58 -31 171 -67 234 -74 59 -7 271
-6 335 1 161 20 465 102 562 154 10 5 52 26 93 47 62 31 205 116 245 146 69
52 215 181 270 239 105 110 250 296 355 454 102 153 785 1173 1048 1565 189
281 230 358 238 448 l5 62 -213 -3 -212 -2 -2 -48 c-2 -64 -66 -194 -169 -342
-42 -60 -161 -235 -264 -387 -198 -291 -200 -295 -345 -452 -115 -125 -198
-206 -256 -248 -25 -18 -54 -41 -65 -51 -45 -41 -122 -82 -194 -103 -114 -33
-174 -19 -201 46 -17 41 -1 115 47 225 34 77 45 99 100 209 14 27 50 83 81
125 97 131 580 858 597 898 9 21 19 59 22 85 l5 47 -228 0 -229 1 2 -43z"/>
<path d="M24623 13847 c4 -60 -19 -134 -67 -212 -17 -27 -162 -246 -322 -485
-160 -239 -312 -471 -337 -516 -58 -100 -97 -239 -93 -330 9 -199 193 -317
411 -263 206 50 412 211 786 613 35 38 90 95 122 128 32 32 82 89 110 126 29
38 71 92 94 120 46 57 60 89 46 103 -17 17 -43 -3 -85 -65 -106 -158 -378
-454 -523 -571 -28 -22 -59 -48 -70 -58 -133 -125 -309 -237 -392 -250 -74
-12 -112 49 -98 159 15 117 45 177 221 439 195 292 485 721 562 834 85 126
102 172 88 247 l-7 34 -225 -1 -225 0 4 -52z"/>
<path d="M12128 9615 c-2 -1 -28 -5 -59 -8 -154 -17 -290 -109 -354 -242 -72
-147 -66 -397 12 -533 52 -91 132 -156 229 -188 101 -33 399 -21 483 19 l26
12 1 233 1 232 -165 -2 -166 -3 1 -35 c0 -19 1 -41 2 -47 1 -10 29 -13 106
-13 58 0 105 -3 106 -7 4 -32 3 -277 -2 -284 -8 -14 -105 -29 -188 -29 -238 0
-367 125 -377 364 -5 146 27 249 104 329 101 104 288 129 471 63 24 -9 45 -16
47 -16 2 0 12 21 24 47 16 36 18 48 8 55 -14 8 -94 32 -144 43 -32 6 -161 14
-166 10z"/>
<path d="M14640 9606 c-72 -16 -120 -39 -158 -79 -90 -93 -81 -262 20 -353 40
-36 113 -73 226 -114 126 -46 178 -105 170 -192 -6 -59 -30 -94 -84 -122 -57
-30 -241 -29 -334 2 -70 23 -78 20 -74 -31 1 -17 3 -37 3 -44 1 -11 38 -27 92
-39 58 -13 212 -16 273 -4 118 22 213 100 232 190 12 54 6 137 -11 174 -35 73
-101 116 -298 197 -122 49 -166 98 -163 179 4 89 73 141 188 141 61 0 154 -18
210 -39 26 -11 27 -10 42 41 8 28 14 52 13 52 -66 24 -110 36 -142 40 -92 11
-153 12 -205 1z"/>
<path d="M19124 9604 c-82 -16 -140 -44 -196 -94 -155 -136 -192 -489 -73
-696 50 -86 149 -159 246 -181 19 -4 81 -7 139 -7 84 1 117 5 163 24 171 66
268 234 269 465 1 206 -67 355 -202 440 -82 52 -230 73 -346 49z m196 -99 c77
-14 149 -72 188 -150 65 -132 59 -379 -12 -500 -33 -55 -62 -80 -128 -109 -50
-22 -69 -25 -150 -23 -97 3 -129 14 -195 64 -69 51 -112 161 -117 299 -12 310
144 468 414 419z"/>
<path d="M11001 9596 c-5 -6 -45 -103 -90 -216 -44 -113 -126 -320 -181 -460
-56 -140 -102 -262 -103 -270 -2 -12 10 -15 52 -15 l54 0 58 150 57 150 195 3
195 2 60 -152 60 -153 56 -1 c31 -1 56 2 56 7 0 4 -39 106 -86 226 -117 300
-122 312 -209 533 -42 107 -78 196 -80 198 -10 10 -85 9 -94 -2z m63 -173 c7
-27 41 -121 75 -211 34 -89 61 -165 61 -167 0 -2 -69 -4 -154 -4 l-155 0 14
37 c8 20 26 69 41 107 14 39 43 118 63 177 20 59 37 108 38 108 1 0 9 -21 17
-47z"/>
<path d="M9626 9128 c1 -260 2 -478 3 -484 1 -7 21 -12 52 -11 l51 0 -3 403
c-2 222 -1 400 2 396 7 -8 97 -147 334 -512 98 -151 183 -278 188 -281 5 -4
36 -7 68 -7 l59 0 0 484 0 484 -49 0 c-30 0 -51 -5 -53 -12 -8 -21 -1 -764 6
-777 4 -6 3 -11 -2 -11 -5 0 -33 37 -61 83 -29 45 -101 156 -161 247 -60 91
-153 234 -207 317 l-98 153 -65 0 -65 0 1 -472z"/>
<path d="M12803 9117 l0 -484 268 0 267 0 4 33 c8 70 13 69 -208 70 -109 1
-204 2 -209 3 -7 1 -11 61 -10 174 l0 172 200 5 200 5 0 45 0 45 -200 5 -200
5 0 150 1 150 212 3 c233 3 214 -3 214 62 0 11 0 25 -1 30 -1 6 -98 10 -269
10 l-269 0 0 -483z"/>
<path d="M13663 9118 l2 -483 268 -1 268 -1 -3 51 -3 51 -200 1 c-110 1 -205
2 -211 3 -7 1 -10 131 -9 419 1 229 -1 423 -3 430 -3 7 -24 12 -58 12 l-54 0
3 -482z"/>
<path d="M15198 9593 c-2 -5 -4 -26 -3 -48 l0 -40 153 -3 152 -3 1 -127 c0
-70 1 -264 2 -432 l2 -305 50 -2 c28 0 52 3 55 7 3 5 5 200 5 434 l0 426 152
0 153 0 0 50 0 50 -359 0 c-198 0 -361 -3 -363 -7z"/>
<path d="M16160 9257 c1 -381 5 -415 61 -497 66 -97 187 -146 333 -137 93 6
131 16 189 51 74 43 120 107 146 201 7 25 11 167 11 383 l0 343 -55 -3 -56 -3
-2 -350 c-2 -334 -3 -352 -23 -396 -41 -87 -122 -130 -242 -128 -123 3 -199
51 -232 149 -15 45 -17 95 -17 388 l0 337 -57 3 -56 3 0 -344z"/>
<path d="M17260 9117 l0 -485 193 3 c138 2 208 7 250 19 220 61 328 216 327
471 0 156 -36 259 -120 344 -103 105 -188 129 -456 131 l-194 1 0 -484z m363
379 c188 -25 289 -157 289 -376 -1 -174 -57 -282 -175 -340 -80 -39 -88 -41
-238 -47 l-125 -5 0 381 c1 277 4 384 13 389 13 8 167 7 236 -2z"/>
<path d="M18350 9117 l1 -484 54 -1 c33 0 55 4 57 11 2 7 4 224 4 482 l-1 470
-58 3 -57 3 0 -484z"/>
</g>
</svg>
