<svg xmlns="http://www.w3.org/2000/svg" viewBox="0 0 128 128"><path d="M64 1.3C28.7 1.3 0 30.1 0 65.6c0 28.4 18.3 52.5 43.8 61 3.2 0.6 4.4-1.4 4.4-3.1 0-1.5-0.1-5.6-0.1-10.9-17.8 3.9-21.6-8.6-21.6-8.6-2.9-7.4-7.1-9.4-7.1-9.4-5.8-4 0.4-3.9 0.4-3.9 6.4 0.5 9.8 6.6 9.8 6.6 5.7 9.8 15 7 18.6 5.3 0.6-4.2 2.2-7 4.1-8.6-14.2-1.6-29.2-7.1-29.2-31.8 0-7 2.5-12.7 6.6-17.2-0.7-1.6-2.9-8.2 0.6-17 0 0 5.4-1.7 17.6 6.6 5.1-1.4 10.6-2.1 16-2.2 5.4 0 10.9 0.7 16 2.2 12.2-8.3 17.6-6.6 17.6-6.6 3.5 8.8 1.3 15.4 0.6 17 4.1 4.5 6.6 10.2 6.6 17.2 0 24.7-15 30.1-29.2 31.7 2.3 2 4.3 5.9 4.3 11.9 0 8.6-0.1 15.5-0.1 17.6 0 1.7 1.2 3.7 4.4 3.1C109.7 118 128 94 128 65.6 128 30.1 99.3 1.3 64 1.3" fill="inherit"/></svg>