<svg xmlns="http://www.w3.org/2000/svg" id="svg2" xmlns:inkscape="http://www.inkscape.org/modules/inkscape" viewBox="0 0 269.002 103.643">
  <defs id="defs4">
    <style>
      @font-face { font-family: Cotillion; src: url(&apos;fonts/cotillion-regular.svg#cotillion&apos;) format(&apos;svg&apos;), url(&apos;fonts/cotillion-regular.eot&apos;), url(&apos;fonts/cotillion-regular.eot?#iefix&apos;) format(&apos;embedded-opentype&apos;), url(&apos;fonts/cotillion-regular.woff&apos;) format(&apos;woff&apos;), url(&apos;fonts/cotillion-regular.woff2&apos;) format(&apos;woff2&apos;), url(&apos;fonts/cotillion-regular.ttf&apos;) format(&apos;truetype&apos;); font-weight: normal; font-style: normal; }
    </style>
  </defs>
  <g id="layer1" inkscape:label="Ebene 1" inkscape:groupmode="layer">
    <g id="g4345">
      <g id="g5" inkscape:export-ydpi="937.835" inkscape:export-xdpi="937.835">
        <text id="text7" transform="translate(3.48 70.402)">
          <tspan id="tspan9" x="0" y="0" fill="#414042" class="st0 st1 st2 st3" font-size="60" font-family="Cotillion" letter-spacing="3">Happy</tspan>  <tspan id="tspan13" x="158.8" y="0" fill="#414042" class="st0 st1 st2 st3" font-size="60" font-family="Cotillion" letter-spacing="3">Nails</tspan>
        </text>
      </g>
      <g id="g15" inkscape:export-ydpi="937.835" inkscape:export-xdpi="937.835">
        <text id="text17" fill="#414042" class="st0 st1 st5" transform="translate(119.498 23.53)" font-size="35" font-family="Cotillion">
          My
        </text>
      </g>
      <text id="text19" x="159.099" y="259.216" fill="#6d6e71" class="st6 st7 st8 st9" inkscape:export-xdpi="937.835" font-size="13" font-family="Open Sans" letter-spacing="1" inkscape:export-ydpi="937.835" transform="translate(-68 -155.7)">
        NAGELSTUDIO
      </text>
      <g id="g21" inkscape:export-ydpi="937.835" inkscape:export-xdpi="937.835">
        <g id="g23">
          <g id="g25" fill="#9c27b0">
            <path id="path27" d="M193.6 24.9c-2.7-1.6-4.7-4.3-4.6-7.4 0-.8.2-1.7.5-2.6.5-1.6 1.9-2.9 3.2-3.9 1.9-1.5 5.7-2 7.9-1.9h.6c2.4-3.1 6.2-4.5 10-4.4 1.9.1 3.8.5 5.5 1.3l-.2.3c-1.6-.8-3.5-1.2-5.3-1.3-3.6-.1-7.2 1.2-9.5 4.1.3 0 .6.1 1 .1 2 .4 4.6 1.6 5.8 3.4.5.7.7 1.6.7 2.4 0 1.3-1.2 2.9-2.7 3.3-.4.1-.8.1-1.2.1-3-.1-5-3.4-4.9-6.3 0-.8.3-2 .7-2.7h-.3c-2.2-.1-4.4.5-6.2 1.9-1.3 1-2.6 2.2-3 3.7-.3.9-.4 1.7-.4 2.5-.1 2.9 1.5 5.1 4.1 6.7 2.6 1.5 6.2 2.4 9.9 2.5 7.9.3 16.7-2.6 19-8.5l.4.1c-2.5 6.2-11.8 9.4-19.8 9.1-4.1-.1-8.5-.9-11.2-2.5zm7-13.1c0 1.4.5 2.9 1.4 4 .9 1.1 2.2 1.9 3.5 2 .4 0 .7 0 1.1-.1 1.3-.3 1.9-1.4 2-2.6 0-.7-.2-1.5-.6-2.2-1.1-1.7-3.6-2.8-5.5-3.2-.4-.1-.8-.1-1.2-.2-.5.7-.7 1.5-.7 2.3z" class="st10" inkscape:connector-curvature="0"/>
            <path id="path29" d="M203.9 23.8c-1.5 0-3.4-.4-4.9-1.1-2.8-1.1-5.8-3.4-7.6-4.5-2.8-1.9-6.5-3.6-8.1-4-3.2-.9-7.1-.4-9.1.7-2.3 1.3-2.3 3.8-1.6 4.9.7 1 2.2 1 2.2 1-.3 0-.9-.4-1.4-.7-1.1-.5-.8-2.6-.7-3 .7-1.7 3.2-2.6 4.3-2.8 4.5-.6 7 .6 8.1 1 4.6 1.9 8.6 5 8.6 5 1.4.9 3.6 2.5 7.3 3.6 3.6 1.1 7.1-.1 7.7-.6-1.1.3-3.3.5-4.8.5z" class="st10" inkscape:connector-curvature="0"/>
            <path id="path31" fill-rule="evenodd" d="M194.6 18s-.2.5-.2.7c-1.8-2.1-4.6-4.8-8.2-6.2-3.6-1.3-5.6-.7-6.8-.3-1.2.4-2.4-.2-2.2-1.1.1-.9 1.2-1.5 5.2-1 4.6.7 9.8 5 12.2 7.9z" class="st11" inkscape:connector-curvature="0" clip-rule="evenodd"/>
            <path id="path33" fill-rule="evenodd" d="M216.2 6.7c-.4 1.1-.8 2-.9 3-.1 1.4.5 2.2.4 3.6.5-.6 1.2-1.4 1.4-2.3.2-1.3-.8-2.4-.9-3.5 0 1.1.7 2.4-.2 3.6-.4-1.2-.3-2.7.2-4.4z" class="st11" inkscape:connector-curvature="0" clip-rule="evenodd"/>
            <path id="path35" fill-rule="evenodd" d="M215.9 8c-.8.3-1.4.6-2 1.1-.8.6-.9 1.4-1.6 2 .6 0 1.3-.1 1.9-.4.8-.5.8-1.7 1.4-2.2-.6.5-.9 1.6-2 1.7.3-.9 1.2-1.6 2.3-2.2z" class="st11" inkscape:connector-curvature="0" clip-rule="evenodd"/>
            <path id="path37" d="M224.8 0s.5.3.4.7c-.1.5-.5.9-.8 1.1l-.5.5c-.3.2-.2.3-.5.4-.3.1-.4.2-.5.5-.1.4-.5 1-.8 1.2-.3.2-.6.2-.9.4-.4.3-1 .8-1.5.7-.2 0-.3-.2-.5-.2.5-.6 1.6-.7 2.2-1.2.5-.4 1.2-1 1.5-1.5-.7.9-.8.8-1.2 1.2-.3.2-.7.5-1.1.6-.4.1-1.2.3-1.7.7.2-.3 1.1-.8 1.2-1.1.6-.8 3.2-2 3.8-2.6-1.2.7-4.5 2.6-5.2 3.6.3-.5.2-1.1 1.4-2.6-.6.5-1.3 1.7-1.5 2.3-.2.5-.5.5-.9.6 0 0 .2-1.5.7-1.9.5-.5 1.3-1.2 2.2-1.6.9-.3 2.2-.7 2.7-.9.4-.1.6-.3 1-.6.3-.2.5-.3.5-.3z" class="st10" inkscape:connector-curvature="0"/>
            <path id="path39" d="M217.3 6.3c1.1-.6 3.4-.4 4.5 0-1.1-.2-3.2-.4-4.4.2.5.4 2.2.5 2.8.6.8.2 2.7.5 3.5.7.7.2.3.1.9.2-2.1-.5-5.2-.7-7.4-1.1 1.1.2 2 1.1 3.1 1.4 1.1.4 2.5.7 4 1-5-.8-6.4-1.6-7.2-2.2.9 1.1 1.4 1.5 2 2 .6.5 1.6 1 2.8 1.6-.9-.4-2.5-1.2-2.9-1.5-.7-.5-1.5-1.1-1.9-1.5.7 1 2.6 2.5 3.9 3 .8.3 1.5.6 1.9.2.4-.4.4-.6.7-.6.3-.1.4-.2.4-.3 0-.1 0-.2.2-.3.2-.1.4-.4.4-.6 0-.2 0-.2.1-.3.1-.1.2-.2.3-.5.1-.3 0-.4 0-.4 0-.1 0-.2-.1-.5s-.5-.5-.8-.8c-.4-.2-1.5-.7-2.5-.9-1-.1-1.9-.2-2.3-.2-.7.1-1.6.2-2 .8z" class="st10" inkscape:connector-curvature="0"/>
            <path id="path41" d="M221.8 11.4s.1.3 0 .5-.1.3 0 .6c0 .2.1.4-.1.4-.2.1-.4 0-.4.1-.1.1-.1.1-.3-.1-.2-.1-.8-.7-1-.9-.2-.2-.8-.7-1.1-1.1-.3-.4-.4-.7-.5-.9-.2-.2-.2-.4-.4-.6-.2-.3-.3-.4-.3-.4s.8.8 1.3 1.2c.6.3 1.1.8 1.6 1l1 .4.2-.2z" class="st10" inkscape:connector-curvature="0"/>
            <path id="path43" d="M221.4 13.9s.4.4.5.7c.1.3.1.4-.1.5-.1.1-.3.2-.5.2l-.2-.1s.1 0 .1-.1c-.1-.1-.4-.3-.7-.5-.3-.2-.8-.6-1.3-1.1-.5-.6-1.1-1.5-1.6-2.5-.1-.3-.6-1.3-.7-2.1.1.2.5 1.1.7 1.4.2.3.4.8.6 1.2.4.8.8 1.6 1.8 2-1.1-.4-1.5-1.6-2-2.7-.3-.8-.8-1.4-1.1-2.2.3.4.5 1 .8 1.5.4.7.6 1.3 1.7 2.3l2 1.5z" class="st10" inkscape:connector-curvature="0"/>
            <path id="path45" fill-rule="evenodd" d="M216.5 5.5c.3-.8.6-1.5.6-2.2.1-1-.4-1.6-.4-2.6-.4.5-.9 1-1 1.7-.1.9.6 1.7.7 2.5 0-.8-.6-1.7.1-2.6.4.8.3 2 0 3.2z" class="st11" inkscape:connector-curvature="0" clip-rule="evenodd"/>
            <path id="path47" fill-rule="evenodd" d="M205.4 23.9c2.1-.6 4-.9 5.7-1.9 2.3-1.3 2.9-3.2 5.1-4.6-1.6-.1-3.5-.4-5 .4-2.2 1.1-2.9 3.9-4.6 5.2 1.7-1.1 2.9-3.8 5.8-3.6-1.4 1.9-3.9 3.5-7 4.5z" class="st11" inkscape:connector-curvature="0" clip-rule="evenodd"/>
            <path id="path49" d="M202.2 11.2c16-1.6 27.2 14.7 43.7 10 2.7-.8 5.3-2.2 7.4-4.1 1.4-1.3 3.7-3.9 5-6.1l-.2.5c-1.3 2.2-3.5 4.8-4.9 6.1-2.1 1.9-4.7 3.3-7.4 4.1-16.5 4.7-28-11.9-44-10.3l.4-.2z" class="st10" inkscape:connector-curvature="0"/>
            <path id="path51" d="M247.2 11.4c-.5 5.7-5.7 11.3-11.6 11.9-5.2.5-8.7-.7-12.3-3.2-4.8-3.4-8.4-5.8-13.9-7.8-4.1-1.5-12.8-2.8-16.9 3.4l-.1.4c4.1-6.2 12.8-4.9 16.9-3.4 5.5 2 9.2 4.4 13.9 7.8 3.6 2.6 7.1 3.7 12.3 3.2 5.9-.6 11.2-5.9 11.8-11.6l-.1-.7z" class="st10" inkscape:connector-curvature="0"/>
            <path id="path53" d="M246.8 13.8c.6-1.4.7-3.2-.8-4.4-1-.8-2.9-.5-3 1-.1.6.4 1.1.9 1.2-.3-1.4.8-2.3 1.9-1.8 2.1 1 1.2 3.5.6 4.9l.4-.9z" class="st10" inkscape:connector-curvature="0"/>
            <path id="path55" fill-rule="evenodd" d="M256.7 12.9c1.1-1.2 2.1-2.1 2.8-3.4.9-1.7.5-3 1.3-4.8-1 .5-2.3 1.1-2.9 2.2-.9 1.5-.2 3.5-.8 5 .6-1.3.3-3.4 2.1-4.5-.1 1.8-1 3.7-2.5 5.5z" class="st11" inkscape:connector-curvature="0" clip-rule="evenodd"/>
            <path id="path57" fill-rule="evenodd" d="M242.2 23.6s-.2-.4-.4-.5c2.4.1 5.7-.1 8.7-1.6 3-1.5 3.7-3.2 4.2-4.2.4-1 1.5-1.4 2-.8.5.6.3 1.6-2.4 3.9-3.1 2.6-8.8 3.4-12.1 3.2z" class="st11" inkscape:connector-curvature="0" clip-rule="evenodd"/>
            <path id="path59" fill-rule="evenodd" d="M173.4 19.7c-.7.6-1.3 1-1.7 1.6-.6.8-.5 1.6-1 2.5.6-.2 1.3-.4 1.7-1 .6-.8.3-1.9.7-2.6-.4.7-.4 1.8-1.4 2.3.2-1 .8-1.9 1.7-2.8z" class="st11" inkscape:connector-curvature="0" clip-rule="evenodd"/>
            <path id="path61" fill-rule="evenodd" d="M172.8 20.4c-.6-.1-1.2-.1-1.7-.1-.7.1-1.1.6-1.8.7.4.2.9.4 1.4.4.7-.1 1.2-.8 1.7-.9-.6.1-1.2.7-1.9.4.5-.4 1.3-.5 2.3-.5z" class="st11" inkscape:connector-curvature="0" clip-rule="evenodd"/>
            <path id="path63" d="M181.5 18.4s.3.4 0 .6c-.3.3-.7.4-.9.4-.2 0-.3.1-.5.2-.3.1-.3.1-.5.1s-.3 0-.5.2-.7.5-1 .5c-.3 0-.5-.1-.8-.1-.4 0-.9.1-1.2-.1-.1-.1-.1-.2-.2-.3.6-.2 1.3.2 1.9.1.5-.1 1.1-.2 1.5-.4-.8.3-.8.3-1.2.3-.3.1-.7.1-.9 0-.3 0-.9-.2-1.4-.1.2-.1 1-.2 1.2-.3.7-.3 2.8-.1 3.5-.3-1 0-3.9 0-4.7.4.4-.2.5-.6 1.9-1.2-.5.1-1.5.6-1.8.9-.3.3-.5.1-.8.1 0 0 .7-.9 1.2-1 .5-.1 1.3-.3 2-.2.7.1 1.7.3 2.1.4.3.1.5 0 .9 0 .1-.2.2-.2.2-.2z" class="st10" inkscape:connector-curvature="0"/>
            <path id="path65" d="M174.3 19.8c1 0 2.4 1 2.9 1.7-.7-.6-1.9-1.4-3-1.5.2.4 1.2 1.1 1.6 1.4.5.4 1.6 1.3 2 1.7.4.3.2.2.5.4-1.2-1.1-3.1-2.4-4.4-3.4.6.5.9 1.5 1.5 2.1.6.6 1.4 1.4 2.2 2.1-3-2.4-3.6-3.4-3.9-4.1.2 1 .4 1.5.6 2 .2.5.6 1.2 1.2 2.1-.5-.6-1.2-1.7-1.4-2.1-.3-.6-.6-1.3-.7-1.7.1.9.8 2.6 1.4 3.4.4.5.8 1 1.2.8.4-.1.5-.2.7-.2.2.1.3 0 .4 0 0-.1.1-.1.2-.1.2 0 .4-.1.5-.3.1-.1.1-.2.2-.2s.2-.1.4-.2c.2-.2.1-.2.1-.3 0 0 .1-.2.1-.4s-.1-.5-.3-.8c-.1-.3-.7-1-1.3-1.5-.6-.5-1.1-.8-1.5-1-.1.1-.7-.1-1.2.1z" class="st10" inkscape:connector-curvature="0"/>
            <path id="path67" d="M175.4 24.8s0 .2-.2.3c-.1.1-.2.2-.2.3-.1.2-.1.3-.2.3s-.2-.1-.3-.1c-.1 0-.1 0-.2-.2-.1-.1-.2-.8-.3-1-.1-.2-.3-.8-.3-1.1v-.8-.6-.4s.2.8.4 1.2c.2.4.5.9.7 1.3.2.3.5.6.5.6l.1.2z" class="st10" inkscape:connector-curvature="0"/>
            <path id="path69" d="M174.2 26.3s.1.4.1.6c0 .2-.1.3-.3.3-.1 0-.3 0-.4-.1l-.1-.1s.1 0 .1-.1-.2-.3-.3-.6c-.1-.2-.3-.6-.4-1.2-.1-.6-.2-1.4-.1-2.2 0-.3.1-1 .3-1.7 0 .2-.1.9-.1 1.2 0 .3 0 .7-.1 1 0 .7-.1 1.4.4 1.9-.6-.7-.4-1.6-.3-2.5.1-.6 0-1.2.1-1.8.1.4 0 .9 0 1.3 0 .6-.1 1.1.3 2.1.5 1.2.8 1.9.8 1.9z" class="st10" inkscape:connector-curvature="0"/>
            <path id="path71" fill-rule="evenodd" d="M174.1 18.9c.5-.4.9-.7 1.2-1.2.4-.6.3-1.2.7-1.8-.4.2-.9.3-1.2.7-.4.6-.2 1.4-.5 1.9.3-.5.3-1.3 1-1.7-.1.8-.5 1.5-1.2 2.1z" class="st11" inkscape:connector-curvature="0" clip-rule="evenodd"/>
            <path id="path73" d="M207.7 27v-.4h1.2c4.8-.3 9.4-4.7 13.1-7.3 2.9-2.1 6.3-3.1 9.7-3.3 4-.3 8.2.5 12.1 1.8 4.1 1.4 9.3 3.7 13.7 3.4 2.6-.2 4.9-1.2 6.7-3.8l.3.2c-1.9 2.7-4.4 3.8-7 4-4.6.3-9.8-2-13.9-3.4-3.9-1.3-8-2.1-11.9-1.8-3.4.2-6.6 1.2-9.5 3.2-3.6 2.6-8.3 7-13.3 7.3-.3.1-.7.1-1.2.1z" class="st10" inkscape:connector-curvature="0"/>
            <path id="path75" fill-rule="evenodd" d="M255.5 15.3c1.3-.3 2.4-.5 3.4-1.1 1.4-.8 1.7-1.9 3-2.7-1-.1-2.1-.2-3 .2-1.3.6-1.7 2.3-2.7 3.1 1-.7 1.7-2.2 3.4-2.1-.7 1.1-2.2 2-4.1 2.6z" class="st11" inkscape:connector-curvature="0" clip-rule="evenodd"/>
            <path id="path77" fill-rule="evenodd" d="M226.4 17.7c1.4.7 2.6 1.5 4 1.8 1.9.4 3.1-.3 5 0-.8-.9-1.7-1.9-2.9-2.3-1.7-.5-3.5.7-5 .5 1.5.2 3.4-.6 4.9.9-1.7.5-3.9.1-6-.9z" class="st11" inkscape:connector-curvature="0" clip-rule="evenodd"/>
          </g>
        </g>
        <g id="g79">
          <g id="g81" fill="#9c27b0">
            <path id="path83" d="M85.1 24.9c-2.7 1.6-7 2.5-10.9 2.6-8 .3-17.3-3-19.8-9.1l.4-.1c2.3 5.9 11.1 8.8 19 8.5 3.8-.1 7.3-1 9.9-2.5 2.6-1.5 4.2-3.8 4.1-6.7 0-.8-.2-1.6-.4-2.5-.5-1.5-1.8-2.7-3-3.7-1.8-1.4-4-2-6.2-1.9h-.3c.4.7.7 1.9.7 2.7.1 3-1.9 6.2-4.9 6.3-.4 0-.8 0-1.2-.1-1.5-.4-2.6-2-2.7-3.3 0-.8.2-1.7.7-2.4 1.2-1.8 3.7-3 5.8-3.4.3-.1.6-.1 1-.1-2.3-2.9-6-4.2-9.5-4.1-1.8.1-3.7.5-5.3 1.3l-.2-.3c1.7-.8 3.6-1.3 5.5-1.3 3.8-.1 7.6 1.3 10 4.4h.6c2.3-.1 6 .4 7.9 1.9 1.3 1 2.7 2.3 3.2 3.9.3.9.4 1.8.5 2.6-.1 2.9-2.2 5.7-4.9 7.3zm-6.9-13.1c0-.8-.3-1.6-.7-2.3-.4 0-.8.1-1.2.2-1.9.4-4.4 1.5-5.5 3.2-.4.6-.6 1.4-.6 2.2 0 1.2.7 2.2 2 2.6.4.1.8.1 1.1.1 1.4 0 2.6-.8 3.5-2 .9-1.2 1.4-2.6 1.4-4z" class="st10" inkscape:connector-curvature="0"/>
            <path id="path85" d="M74.9 23.8c1.5 0 3.4-.4 4.9-1.1 2.8-1.1 5.8-3.4 7.6-4.5 2.8-1.9 6.5-3.6 8.1-4 3.2-.9 7.1-.4 9.1.7 2.3 1.3 2.3 3.8 1.6 4.9-.7 1-2.2 1-2.2 1 .3 0 .9-.4 1.4-.7 1.1-.5.8-2.6.7-3-.7-1.7-3.2-2.6-4.3-2.8-4.5-.6-7 .6-8.1 1-4.6 1.9-8.6 5-8.6 5-1.4.9-3.6 2.5-7.3 3.6-3.6 1.1-7.1-.1-7.7-.6 1 .3 3.3.5 4.8.5z" class="st10" inkscape:connector-curvature="0"/>
            <path id="path87" fill-rule="evenodd" d="M84.1 18s.2.5.2.7c1.8-2.1 4.6-4.8 8.2-6.2 3.6-1.3 5.6-.7 6.8-.3 1.2.4 2.4-.2 2.2-1.1-.1-.9-1.2-1.5-5.2-1-4.6.7-9.7 5-12.2 7.9z" class="st11" inkscape:connector-curvature="0" clip-rule="evenodd"/>
            <path id="path89" fill-rule="evenodd" d="M62.6 6.7c.4 1.1.8 2 .9 3 .1 1.4-.5 2.2-.4 3.6-.5-.6-1.2-1.4-1.4-2.3-.2-1.3.8-2.4.9-3.5 0 1.1-.7 2.4.2 3.6.4-1.2.2-2.7-.2-4.4z" class="st11" inkscape:connector-curvature="0" clip-rule="evenodd"/>
            <path id="path91" fill-rule="evenodd" d="M62.9 8c.8.3 1.4.6 2 1.1.8.6.9 1.4 1.6 2-.6 0-1.3-.1-1.9-.4-.8-.5-.8-1.7-1.4-2.2.6.5.9 1.6 2 1.7-.4-.9-1.2-1.6-2.3-2.2z" class="st11" inkscape:connector-curvature="0" clip-rule="evenodd"/>
            <path id="path93" d="M54 0s-.5.3-.4.7c.1.5.5.9.8 1.1l.5.5c.3.2.2.3.5.4.3.1.4.2.5.5.1.4.5 1 .8 1.2.3.2.6.2.9.4.4.3 1 .8 1.5.7.2 0 .3-.2.5-.2-.5-.6-1.6-.7-2.2-1.2-.5-.4-1.2-1-1.5-1.5.7.9.8.8 1.2 1.2.3.2.7.5 1.1.6.4.1 1.2.3 1.7.7-.2-.3-1.1-.8-1.2-1.1-.6-.8-3.2-2-3.8-2.6 1.2.7 4.5 2.6 5.2 3.6-.3-.5-.2-1.1-1.4-2.6.6.5 1.3 1.7 1.5 2.3.2.5.5.5.9.6 0 0-.2-1.5-.7-1.9-.5-.5-1.3-1.2-2.2-1.6-.9-.3-2.2-.7-2.7-.9-.4-.1-.6-.3-1-.6C54.2.1 54 0 54 0z" class="st10" inkscape:connector-curvature="0"/>
            <path id="path95" d="M61.5 6.3c-1.1-.6-3.4-.4-4.5 0 1.1-.2 3.2-.4 4.4.2-.5.4-2.2.5-2.8.6-.8.2-2.7.5-3.5.7-.7.2-.3.1-.9.2 2.1-.5 5.2-.7 7.4-1.1-1.1.2-2 1.1-3.1 1.4-1.1.4-2.5.7-4 1 5-.8 6.4-1.6 7.2-2.2-.9 1.1-1.4 1.5-2 2-.6.5-1.6 1-2.8 1.6.9-.4 2.5-1.2 2.9-1.5.7-.5 1.5-1.1 1.9-1.5-.7 1-2.6 2.5-3.9 3-.8.3-1.5.6-1.9.2-.4-.4-.4-.6-.7-.6-.3-.1-.4-.2-.4-.3 0-.1 0-.2-.2-.3-.2-.1-.4-.4-.4-.6 0-.2 0-.2-.1-.3-.1-.1-.2-.2-.3-.5-.1-.3 0-.4 0-.4 0-.1 0-.2.1-.5s.5-.5.8-.8c.4-.2 1.5-.7 2.5-.9 1-.1 1.9-.2 2.3-.2.7.1 1.6.2 2 .8z" class="st10" inkscape:connector-curvature="0"/>
            <path id="path97" d="M57 11.4s-.1.3 0 .5.1.3 0 .6c0 .2-.1.4.1.4.2.1.4 0 .4.1.1.1.1.1.3-.1.2-.1.8-.7 1-.9.2-.2.8-.7 1.1-1.1.3-.4.4-.7.5-.9.2-.2.2-.4.4-.6.2-.3.3-.4.3-.4s-.8.8-1.3 1.2c-.6.3-1.1.8-1.6 1l-1 .4-.2-.2z" class="st10" inkscape:connector-curvature="0"/>
            <path id="path99" d="M57.4 13.9s-.4.4-.5.7c-.1.3-.1.4.1.5.1.1.3.2.5.2l.2-.1s-.1 0-.1-.1c.1-.1.4-.3.7-.5.3-.2.8-.6 1.3-1.1.5-.6 1.1-1.5 1.6-2.5.1-.3.6-1.3.7-2.1-.1.2-.5 1.1-.7 1.4-.2.3-.4.8-.6 1.2-.4.8-.8 1.6-1.8 2 1.1-.4 1.5-1.6 2-2.7.3-.8.8-1.4 1.1-2.2-.3.4-.5 1-.8 1.5-.4.7-.6 1.3-1.7 2.3l-2 1.5z" class="st10" inkscape:connector-curvature="0"/>
            <path id="path101" fill-rule="evenodd" d="M62.3 5.5c-.3-.8-.6-1.5-.6-2.2-.1-1 .4-1.6.4-2.6.4.5.9 1 1 1.7.1.9-.6 1.7-.7 2.5 0-.8.6-1.7-.1-2.6-.4.8-.4 2 0 3.2z" class="st11" inkscape:connector-curvature="0" clip-rule="evenodd"/>
            <path id="path103" fill-rule="evenodd" d="M73.4 23.9c-2.1-.6-4-.9-5.7-1.9-2.3-1.3-2.9-3.2-5.1-4.6 1.6-.1 3.5-.4 5 .4 2.2 1.1 2.9 3.9 4.6 5.2-1.7-1.1-2.9-3.8-5.8-3.6 1.3 1.9 3.9 3.5 7 4.5z" class="st11" inkscape:connector-curvature="0" clip-rule="evenodd"/>
            <path id="path105" d="M76.5 11.2c-16-1.6-27.2 14.7-43.7 10-2.7-.8-5.3-2.2-7.4-4.1-1.4-1.3-3.7-3.9-5-6.1l.2.5c1.3 2.2 3.5 4.8 4.9 6.1 2.1 1.9 4.7 3.3 7.4 4.1 16.5 4.7 28-11.9 44-10.3l-.4-.2z" class="st10" inkscape:connector-curvature="0"/>
            <path id="path107" d="M31.6 11.4c.5 5.7 5.7 11.3 11.6 11.9 5.2.5 8.7-.7 12.3-3.2 4.8-3.4 8.4-5.8 13.9-7.8 4.1-1.5 12.8-2.8 16.9 3.4l.1.4c-4.1-6.2-12.8-4.9-16.9-3.4-5.5 2-9.2 4.4-13.9 7.8-3.6 2.6-7.1 3.7-12.3 3.2-5.9-.6-11.2-5.9-11.8-11.6l.1-.7z" class="st10" inkscape:connector-curvature="0"/>
            <path id="path109" d="M32 13.8c-.6-1.4-.7-3.2.8-4.4 1-.8 2.9-.5 3 1 .1.6-.4 1.1-.9 1.2.3-1.4-.8-2.3-1.9-1.8-2.1 1-1.2 3.5-.6 4.9l-.4-.9z" class="st10" inkscape:connector-curvature="0"/>
            <path id="path111" fill-rule="evenodd" d="M22.1 12.9c-1.1-1.2-2.1-2.1-2.8-3.4-.9-1.7-.5-3-1.3-4.8 1 .5 2.3 1.1 2.9 2.2.9 1.5.2 3.5.8 5-.6-1.3-.3-3.4-2.1-4.5 0 1.8 1 3.7 2.5 5.5z" class="st11" inkscape:connector-curvature="0" clip-rule="evenodd"/>
            <path id="path113" fill-rule="evenodd" d="M36.6 23.6s.2-.4.4-.5c-2.4.1-5.7-.1-8.7-1.6-3-1.5-3.7-3.2-4.2-4.2-.4-1-1.5-1.4-2-.8-.5.6-.3 1.6 2.4 3.9 3 2.6 8.7 3.4 12.1 3.2z" class="st11" inkscape:connector-curvature="0" clip-rule="evenodd"/>
            <path id="path115" fill-rule="evenodd" d="M105.3 19.7c.7.6 1.3 1 1.7 1.6.6.8.5 1.6 1 2.5-.6-.2-1.3-.4-1.7-1-.6-.8-.3-1.9-.7-2.6.4.7.4 1.8 1.4 2.3-.1-1-.8-1.9-1.7-2.8z" class="st11" inkscape:connector-curvature="0" clip-rule="evenodd"/>
            <path id="path117" fill-rule="evenodd" d="M106 20.4c.6-.1 1.2-.1 1.7-.1.7.1 1.1.6 1.8.7-.4.2-.9.4-1.4.4-.7-.1-1.2-.8-1.7-.9.6.1 1.2.7 1.9.4-.5-.4-1.4-.5-2.3-.5z" class="st11" inkscape:connector-curvature="0" clip-rule="evenodd"/>
            <path id="path119" d="M97.2 18.4s-.3.4 0 .6c.3.3.7.4.9.4.2 0 .3.1.5.2.3.1.3.1.5.1s.3 0 .5.2.7.5 1 .5c.3 0 .5-.1.8-.1.4 0 .9.1 1.2-.1.1-.1.1-.2.2-.3-.6-.2-1.3.2-1.9.1-.5-.1-1.1-.2-1.5-.4.8.3.8.3 1.2.3.3.1.7.1.9 0 .3 0 .9-.2 1.4-.1-.2-.1-1-.2-1.2-.3-.7-.3-2.8-.1-3.5-.3 1 0 3.9 0 4.7.4-.4-.2-.5-.6-1.9-1.2.5.1 1.5.6 1.8.9.3.3.5.1.8.1 0 0-.7-.9-1.2-1-.5-.1-1.3-.3-2-.2-.7.1-1.7.3-2.1.4-.3.1-.5 0-.9 0 0-.2-.2-.2-.2-.2z" class="st10" inkscape:connector-curvature="0"/>
            <path id="path121" d="M104.4 19.8c-1 0-2.4 1-2.9 1.7.7-.6 1.9-1.4 3-1.5-.2.4-1.2 1.1-1.6 1.4-.5.4-1.6 1.3-2 1.7-.4.3-.2.2-.5.4 1.2-1.1 3.1-2.4 4.4-3.4-.6.5-.9 1.5-1.5 2.1-.6.6-1.4 1.4-2.2 2.1 3-2.4 3.6-3.4 3.9-4.1-.2 1-.4 1.5-.6 2-.2.5-.6 1.2-1.2 2.1.5-.6 1.2-1.7 1.4-2.1.3-.6.6-1.3.7-1.7-.1.9-.8 2.6-1.4 3.4-.4.5-.8 1-1.2.8-.4-.1-.5-.2-.7-.2-.2.1-.3 0-.4 0 0-.1-.1-.1-.2-.1-.2 0-.4-.1-.5-.3-.1-.1-.1-.2-.2-.2s-.2-.1-.4-.2c-.2-.2-.1-.2-.1-.3 0 0-.1-.2-.1-.4s.1-.5.3-.8c.1-.3.7-1 1.3-1.5.6-.5 1.1-.8 1.5-1 .1.1.8-.1 1.2.1z" class="st10" inkscape:connector-curvature="0"/>
            <path id="path123" d="M103.4 24.8s0 .2.2.3c.1.1.2.2.2.3.1.2.1.3.2.3s.2-.1.3-.1c.1 0 .1 0 .2-.2.1-.1.2-.8.3-1 .1-.2.3-.8.3-1.1v-.8-.6-.4s-.2.8-.4 1.2c-.2.4-.5.9-.7 1.3-.2.3-.5.6-.5.6l-.1.2z" class="st10" inkscape:connector-curvature="0"/>
            <path id="path125" d="M104.5 26.3s-.1.4-.1.6c0 .2.1.3.3.3.1 0 .3 0 .4-.1l.1-.1s-.1 0-.1-.1.2-.3.3-.6c.1-.2.3-.6.4-1.2.1-.6.2-1.4.1-2.2 0-.3-.1-1-.3-1.7 0 .2.1.9.1 1.2 0 .3 0 .7.1 1 0 .7.1 1.4-.4 1.9.6-.7.4-1.6.3-2.5-.1-.6 0-1.2-.1-1.8-.1.4 0 .9 0 1.3 0 .6.1 1.1-.3 2.1-.4 1.2-.8 1.9-.8 1.9z" class="st10" inkscape:connector-curvature="0"/>
            <path id="path127" fill-rule="evenodd" d="M104.7 18.9c-.5-.4-.9-.7-1.2-1.2-.4-.6-.3-1.2-.7-1.8.4.2.9.3 1.2.7.4.6.2 1.4.5 1.9-.3-.5-.3-1.3-1-1.7 0 .8.5 1.5 1.2 2.1z" class="st11" inkscape:connector-curvature="0" clip-rule="evenodd"/>
            <path id="path129" d="M71 27v-.4h-1.2c-4.8-.3-9.4-4.7-13.1-7.3-2.9-2.1-6.3-3.1-9.7-3.3-4-.3-8.2.5-12.1 1.8-4.1 1.4-9.3 3.7-13.7 3.4-2.6-.2-4.9-1.2-6.7-3.8l-.3.2c1.9 2.7 4.4 3.8 7 4 4.6.3 9.8-2 13.9-3.4 3.9-1.3 8-2.1 11.9-1.8 3.4.2 6.6 1.2 9.5 3.2 3.6 2.6 8.3 7 13.3 7.3.4.1.8.1 1.2.1z" class="st10" inkscape:connector-curvature="0"/>
            <path id="path131" fill-rule="evenodd" d="M23.2 15.3c-1.3-.3-2.4-.5-3.4-1.1-1.4-.8-1.7-1.9-3-2.7 1-.1 2.1-.2 3 .2 1.3.6 1.7 2.3 2.7 3.1-1-.7-1.7-2.2-3.4-2.1.8 1.1 2.3 2 4.1 2.6z" class="st11" inkscape:connector-curvature="0" clip-rule="evenodd"/>
            <path id="path133" fill-rule="evenodd" d="M52.4 17.7c-1.4.7-2.6 1.5-4 1.8-1.9.4-3.1-.3-5 0 .8-.9 1.7-1.9 2.9-2.3 1.7-.5 3.5.7 5 .5-1.5.2-3.4-.6-4.9.9 1.7.5 3.8.1 6-.9z" class="st11" inkscape:connector-curvature="0" clip-rule="evenodd"/>
          </g>
        </g>
      </g>
    </g>
  </g>
  <style id="style3">
    .st0{fill:#414042;} .st1{font-family:&apos;Cotillion&apos;;} .st2{font-size:60px;} .st3{letter-spacing:3;} .st4{letter-spacing:-15;} .st5{font-size:35px;} .st6{fill:#6D6E71;} .st7{font-family:&apos;Open Sans&apos;;} .st8{font-size:13px;} .st9{letter-spacing:1;} .st10{fill:rgb(156,39,176);} .st11{fill-rule:evenodd;clip-rule:evenodd;fill:rgb(156,39,176);}
  </style>
  <style id="style3-2">
    .st0{fill:#414042;} .st1{font-family:&apos;Cotillion&apos;;} .st2{font-size:60px;} .st3{letter-spacing:3;} .st4{letter-spacing:-15;} .st5{font-size:35px;} .st6{fill:#6D6E71;} .st7{font-family:&apos;Open Sans&apos;;} .st8{font-size:13px;} .st9{letter-spacing:1;} .st10{fill:rgb(156,39,176);} .st11{fill-rule:evenodd;clip-rule:evenodd;fill:rgb(156,39,176);}
  </style>
</svg>