<svg xmlns="http://www.w3.org/2000/svg" viewBox="0 0 56.7 56.7"><path d="M52.2 25.9h-7.5v-7.5c0-.6-.5-1-1-1h-2.2a1 1 0 0 0-1 1v7.5H33a1 1 0 0 0-1 1V29c0 .6.5 1 1 1h7.5v7.5c0 .6.5 1 1 1h2.1c.6 0 1-.5 1-1v-7.4h7.5c.6 0 1-.5 1-1V27c.2-.7-.3-1.1-.9-1.1z"/><path d="M27 32.4c-1.6-1.1-3-2.8-3-3.3 0-.9.1-1.4 2.1-3a9.7 9.7 0 0 0 4.1-7.7c0-2.6-.8-5-2.2-6.6h1.1l.6-.2 3-2.1c.4-.3.5-.7.4-1.2-.1-.4-.5-.7-1-.7H18.8c-1.4 0-2.9.3-4.4.8-4.8 1.7-8.2 5.8-8.2 10 0 6 4.6 10.5 10.8 10.6l-.2 1.4c0 .9.2 1.8.7 2.6h-.2c-5.9 0-11.2 2.9-13.2 7.2a8.4 8.4 0 0 0-.8 3.4c0 1.1.3 2.1.8 3.1 1.3 2.3 4 4 7.7 5a23.7 23.7 0 0 0 11.5 0c5.2-1.5 8.6-5.4 8.6-9.8.1-4.3-1.2-6.9-4.9-9.5zm-16.7 9.8c0-3.1 3.9-5.8 8.4-5.8h.1c1 0 1.9.2 2.8.4l.9.6c2.1 1.4 3.5 2.4 3.8 3.9l.1 1.1c0 3.9-2.9 5.8-8.6 5.8-4.1 0-7.5-2.6-7.5-6zm4.1-29.3c.7-.8 1.6-1.2 2.7-1.2h.1c2.9.1 5.7 3.3 6.2 7.3.3 2.2-.2 4.3-1.3 5.5-.7.8-1.6 1.2-2.7 1.2-2.9-.1-5.7-3.5-6.2-7.4-.4-2.2.1-4.2 1.2-5.4z"/></svg>